<?xml version="1.0" encoding="utf-8"?>
<!-- Generator: Adobe Illustrator 19.0.0, SVG Export Plug-In . SVG Version: 6.00 Build 0)  -->
<svg version="1.1" id="Layer_1" xmlns="http://www.w3.org/2000/svg" xmlns:xlink="http://www.w3.org/1999/xlink" x="0px" y="0px"
	 viewBox="0 0 683.6 232.6" style="enable-background:new 0 0 683.6 232.6;" xml:space="preserve">
<style type="text/css">
	.st0{opacity:0.48;fill:#F4C9C9;}
</style>
<path class="st0" d="M683.6,167.8v64.8h-550L0,231.4l1-118l7,0.1c0.1-9.9,8.2-17.9,18.2-17.8c9.9,0.1,17.9,8.2,17.8,18.1l7,0.1
	l-0.4,42l17,0.1l0.2-24l28,0.2L96.2,86H84.6v-6h60v6h-9.4l-0.5,62h42.9V24h14V0h18v24h18V0h15v24h17v79h67v42h37V67h2.5
	c0-11,9-20,20-20s20,9,20,20h2.5v30h4V62.5h8.5V97h6.5V62h8.5v35h7V62.5h8.5V97h10v48h22V24h-2.5V12h77.5v12h-2v64.6h9V70h17.5V51
	h4.5v19h12v18.6h10V136h22v31.8H683.6z"/>
</svg>
