<?xml version="1.0" encoding="utf-8"?>
<!-- Generator: Adobe Illustrator 19.0.0, SVG Export Plug-In . SVG Version: 6.00 Build 0)  -->
<svg version="1.1" xmlns="http://www.w3.org/2000/svg" xmlns:xlink="http://www.w3.org/1999/xlink" x="0px" y="0px"
	 viewBox="0 0 950.5 404.7" style="enable-background:new 0 0 950.5 404.7;" xml:space="preserve">
<style type="text/css">
	.st0{fill:#02304F;}
	.st1{fill:none;}
	.st2{fill:#0E3654;}
	.st3{fill:#254D68;}
	.st4{fill:#1E4663;}
	.st5{fill:#022F4F;}
	.st6{fill:#2A506B;}
	.st7{fill:#224E5F;}
	.st8{fill:#3D4759;}
	.st9{fill:#314C63;}
	.st10{fill:#FEFEFE;}
	.st11{fill:#FEECE8;}
	.st12{fill:#FDEBE8;}
	.st13{fill:#FDEBE7;}
	.st14{fill:#FDFDFE;}
	.st15{fill:#B0E98C;}
	.st16{fill:#EE7E65;}
	.st17{fill:#17405C;}
	.st18{fill:#ED7F65;}
	.st19{fill:#AFE88B;}
	.st20{fill:#2A4D67;}
	.st21{fill:#EC8067;}
	.st22{fill:#F1E2E0;}
	.st23{fill:#F5E5E3;}
	.st24{fill:#244964;}
	.st25{fill:#FCEAE7;}
	.st26{fill:#F4E5E2;}
	.st27{fill:#FBEAE6;}
	.st28{fill:#F6E6E3;}
	.st29{fill:#F7E7E4;}
	.st30{fill:#FCEBE7;}
	.st31{fill:#F7F8F8;}
	.st32{fill:#60C7EC;}
	.st33{fill:#244963;}
	.st34{fill:#FDECE8;}
	.st35{fill:#274B65;}
	.st36{fill:#EBDEDC;}
	.st37{fill:#ADE48C;}
	.st38{fill:#ACE48C;}
	.st39{fill:#AAE289;}
	.st40{fill:#3E5C74;}
	.st41{fill:#32526A;}
	.st42{fill:#F4E4E2;}
	.st43{fill:#CAD4DA;}
	.st44{fill:#D8DFE4;}
	.st45{fill:#E2E8EB;}
	.st46{fill:#405D74;}
	.st47{fill:#F2F4F6;}
	.st48{fill:#E6DDDD;}
	.st49{fill:#D3DBE1;}
	.st50{fill:#F3F5F6;}
	.st51{fill:#F3F2F3;}
	.st52{fill:#FCFDFD;}
	.st53{fill:#F6E7E4;}
	.st54{fill:#F9E9E6;}
	.st55{fill:#F7F4F4;}
	.st56{fill:#F7EDEB;}
	.st57{fill:#F9FAFA;}
	.st58{fill:#FCFCFD;}
	.st59{fill:#FCF9F8;}
	.st60{fill:#F3F5F7;}
	.st61{fill:#F1F4F5;}
	.st62{fill:#EFECED;}
	.st63{fill:#FAFBFC;}
	.st64{fill:#EFF2F4;}
	.st65{fill:#FBFBFC;}
	.st66{fill:#F0F3F4;}
	.st67{fill:#FDFEFE;}
	.st68{fill:#F0F2F4;}
	.st69{fill:#FBFCFC;}
	.st70{fill:#F1F3F5;}
	.st71{fill:#F0F3F5;}
	.st72{fill:#EAEEF0;}
	.st73{fill:#ED7E65;}
	.st74{fill:#E2D7D7;}
	.st75{fill:#63CBF0;}
	.st76{fill:#5FC6EB;}
	.st77{fill:#4CA7CA;}
	.st78{fill:#62C9EE;}
	.st79{fill:#55B6DA;}
	.st80{fill:#61C7EC;}
	.st81{fill:#63CCF0;}
	.st82{fill:#FDFDFD;}
	.st83{fill:#395D76;}
	.st84{fill:#FAFBFB;}
	.st85{fill:#F5F6F7;}
	.st86{fill:#F8F9FA;}
	.st87{fill:#D9E0E4;}
	.st88{fill:#365B74;}
	.st89{fill:#E47B64;}
	.st90{fill:#DAE1E5;}
	.st91{fill:#F5F7F8;}
	.st92{fill:#CBD4DB;}
	.st93{fill:#F7F8F9;}
	.st94{fill:#ACBBC6;}
	.st95{fill:#DBE2E6;}
	.st96{fill:#EDF2EF;}
	.st97{fill:#BCB7BB;}
	.st98{fill:#E6CBC7;}
	.st99{fill:#CCD5DC;}
	.st100{fill:#58BADE;}
	.st101{fill:#D1D9DF;}
	.st102{fill:#F5E6E3;}
	.st103{fill:#103652;}
	.st104{fill:#203951;}
	.st105{fill:#BAC7CF;}
	.st106{fill:#1A4460;}
</style>
<g id="Layer_2">
	<rect id="XMLID_19_" x="149.4" y="148.2" class="st0" width="34.4" height="256.3"/>
</g>
<g id="Layer_1">
	<path id="XMLID_30_" class="st0" d="M950.5,403.3c0,0.5,0,1.2,0,1.2H0.1c0,0,0-0.8-0.1-1.2c6.8,0,13.5-0.1,20.3,0.2
		c3.8,0.1,6.6,0,7.9-4.7c1-3.5,4.6-4.9,8.3-4.8c4,0.1,7.3,2,8.3,5.8c0.9,3.5,2.8,3.8,5.8,3.8c8.6-0.2,17.2-0.1,25.8-0.1
		c0.2,0,0.3-0.1,0.5-0.2c-0.3-0.3-0.6-0.7-0.8-1c-0.1-1.3,0.9-1.6,1.8-1.9c5.7,0.7,11.5,0.4,17.2,0.8c1.3,0.1,2.5,0.7,3.7,0.8
		c11.2,0,22.5,0,33.7,0c3.2,0,6.2-0.7,5.7-4.6c-1.1-7.8,2.3-11.6,9.7-12.7c0.4-1.1,0.7-2.2,0.9-3.3c0.2-0.9,0.5-1.7,0.9-2.4
		c0.7-0.7,1.4-1.1,2.2-0.3c2.5,5.3,4.3,10.9,8.7,15.1c7.5,7.1,16.5,8.6,26.3,6.5c2-0.4,3.9-1.4,6.1-0.7c0.8,0.5,1.4,1.1,0.9,2.2
		c0.8,2.7,3.1,1.7,4.8,1.8c9.3,0.1,18.7,0,28,0c5.9,0,6.1-0.4,3.5-5.6c-0.5-0.9-1-1.9-2.2-4.1c4.6,2.8,4.8,6.7,6.8,10.2
		c2.2-4.2,1.4-9.6,6.4-11.6c-2.2,3.3-3.6,6.8-3.6,11.1c9.9,0,19.5-0.1,29.3,0c2.3,0,3-0.8,3-3c0-20.8,0-41.6,0-62.4
		c0-2.7-1.4-3.2-3.6-3c-1.8,0.1-3.4,0-3.4-2.6c0-2.5,0.9-3.5,3.4-3.3c6.8,0.6,1.6-5.8,4.6-7.6c2.8,1.7-2.5,7.8,3.9,7.6
		c3.6-0.1,7.3,0,10.9,0c6.5,0,1.2-5.6,4-7.8c2,2.2,0.1,5.4,1.4,7.8c-0.4,1.5-2.6,3.1,0.2,4.5c2.6-1.8,5.6-1,8.3-1
		c113.5,0,227.1,0,340.6,0c3,0,6.1,0.5,9.1-0.8c0.4-0.5,0.8-1,1.2-1.5c1.1,3.8-0.4,5.4-4.2,4.7c-5.8-1-6.9,1.5-6.7,6.8
		c0.4,12,0.1,24,0.2,35.9c0,1.9-0.6,3.8,1.9,5.4c9.3,5.7,10.5,9.2,7.9,20.3c8.4,0,16.7,0.1,25,0c2.2,0,2.1-0.5,1.6-1.1l79,1.1
		c7.3,0,13.5,0.1,19.6,0.1h22c0,0-0.1,0-0.1,0l7.3-0.1c-0.3,0-0.5,0.1-0.7,0.1H824c1.1,0,2.3,0,3.4,0c16-0.3,31.9-0.2,47.9,0
		c3.8,0.1,4.8-1.1,4.7-4.8c-0.2-5.1,0.2-8.8-6.3-11.7c-11.1-5-9.2-19.1,2.8-25.9c4.2-0.3,8.4-0.7,12.1,1.9c4.9,3.4,7.6,8,6.9,14.1
		c-0.7,6.1-4.1,10.3-10,11.9c-7.6,2-3.2,7.8-3.7,11.7c-0.6,4.5,3.8,2.5,5.9,2.5c7.8,0.3,15.6,0.1,23.4,0.1c2.1,0,3.8-0.1,3.6-2.9
		c-0.3-5.1,0.5-10.3-0.5-15.4c-1.4-3.8,0.7-8-1.2-11.8c-0.6-1.2-1.4-2.3-1.9-3.5c-1.2-2.7-2-5.3,2.7-3.4c1,0.4,1.8,0.2,2.6-0.6
		c0.9-0.9,1.8-2.3,3.3-1.3c1.6,1.1,1,2.8,0.3,4.1c-2.5,4.6-1.7,9.6-2.1,14.5c-0.2,0.9-0.7,1.6-1.1,2.3c-0.1,4.8,0.1,9.5-0.2,14.3
		c-0.2,3.2,1.1,3.7,4,3.6C930.4,403.3,940.4,403.3,950.5,403.3z"/>
	<path id="XMLID_42_" class="st1" d="M179.1,146.7c-10.1-0.1-20.1-0.3-30.2,0.1c-1.1,0.2-2.1,0.6-3,1.5c0.2,2.2-1.8,5.9,1.4,6.3
		c4.5,0.6,3.3,3.4,3.3,5.7c0,45.3,0.1,90.7,0.1,136v0.1l0.1,6.1h30.9l-0.1-1.5c-0.5-0.6-0.5-1.5-0.2-2.8
		c-0.1-46.6-0.1-93.2-0.3-139.7c0-3.1,2-3.4,3.5-4.6C185.7,147.5,185.3,146.7,179.1,146.7z M154.2,284.5c3.9-5,7.3-8.9,10.8-12.9
		c1.8-2,2.6,0.1,3.5,1.1c3.1,3.6,6.2,6.8,10,11.8H154.2z"/>
	<path id="XMLID_37_" class="st2" d="M178.5,284.5h-24.3c3.9-5,7.3-8.9,10.8-12.9c1.8-2,2.6,0.1,3.5,1.1
		C171.6,276.3,174.7,279.5,178.5,284.5z"/>
	<path id="XMLID_340_" class="st3" d="M169.8,14.4c31.7,8,63.4,16,95.1,24.2c56.8,14.6,113.5,29.2,170.3,43.8
		c2.2,0.6,4.5,0.7,6.8,0.8c13.9,0.1,27.9,0.3,41.8-0.1c4.9-0.1,8.3,1.3,11.3,4.9c2.5,3.1,5.4,5.8,8.2,8.7c-0.3,0.7-0.6,1.6-1.3,1.7
		c-8.4,1.4-16.8,2.9-25-0.9c0.2-3.5,0.2-3.5,7-10.7c-4.9,0-9.1,0-13.6,0c1.6,3.9,6.8,5.5,5.8,10.4c-0.6,1.4-1.9,2-3.2,2
		c-6.8,0.1-13.7,1-20.5-0.6c-2.5-2.2-1.3-4.4,0.2-6.5c1.2-1.7,2.9-3,4.8-5.2c-5.2-0.4-9.7-0.1-14.9-0.2c1,2.4,3.1,3.5,4.3,5.2
		c1.4,1.9,3.7,3.6,1.9,6.4c-8,1.9-16,1.5-24,0.3c-3.9-5.9,2.7-7.5,4.7-11.9c-4.8,0-9.5,0-14.3,0c1.3,4.5,8.4,5.4,5.8,11.3
		c-8.3,2.3-16.6,2.2-25,0.1c-2.1-2.1-0.5-3.7,0.8-5.4c1.5-1.9,3.7-3.2,5.2-6c-5-0.1-9.7,0-14.6,0c1.8,3.9,6.7,5.3,7.1,9.9
		c-0.5,1.1-1.3,1.7-2.6,1.5c-1.5-1.4-2.9-3-4.4-4.4c-6.3-6.1-6.3-6.1-12.6,1.2c4,0.7,7.7,0.1,11.3,0.5c2.9,0.4,3,0.5,2.4,3.4
		c-5.3,1.2-10.6,0.5-15.9,0.5c-1.9,0-3.8-0.6-4.2-3c-0.2-4.4,4.1-6,6.3-9.6c-5.1,0-9.9,0-14.9,0c2,3.9,6.8,5.4,7.2,10
		c-0.6,1.1-1.4,1.7-2.7,1.4c-1-2.2-3.2-3.1-4.8-4.7c-6.5-6.3-7.1-6.2-12.8,1.6c4.6,0.8,9.1-0.2,13.5,0.6c1.5,0.2,5.4,0.2,1.7,3.4
		c-7.1,0.5-14.2,1.4-21.2-0.6c-1.9-2.2-0.3-3.9,1-5.5c1.5-1.9,3.5-3.5,5.8-6.1c-5.4-0.2-10-0.1-15.2-0.1c1.6,2.4,3.6,3.8,5.1,5.6
		c1.3,1.6,3.1,3.1,1.4,5.5c-7.7,3-15.5,1.6-23.3,0.9c-1.2-0.1-1.8-1.3-2-2.5c0-4.6,4.2-6.2,6.6-9.6c-5.2,0-10.3,0-15.6-0.1
		c2.4,3.4,6.6,5,6.6,9.6c-0.2,1.5-1.1,2.7-2.5,2.7c-8,0.3-16.1,1.9-23.9-1c-1.9-2.3-0.1-3.8,1.1-5.4c1.4-1.9,3.7-3.1,5-5.8
		c-5,0-9.6,0-14.3,0c1.3,4.5,8.5,5.3,5.8,11.4c-8.4,2.3-16.9,1.9-25.3,0.3c-1.8-2.2-0.3-3.8,1-5.4c1.5-1.9,3.5-3.4,5.6-6
		c-5.2-0.5-9.8-0.2-14.6-0.2c1.4,4.4,8.4,5.3,6,11.3c-8.3,2.4-16.7,2.2-25,0.1c-2.1-2.1-0.5-3.8,0.8-5.4c1.5-1.9,3.5-3.3,5.5-6
		c-5.1,0-9.7,0-14.9,0c1.4,2.4,3.5,3.8,4.9,5.6c1.4,1.7,3.4,3.3,1.2,5.8c-8.7,1.6-17.3,3.2-25.7-1c1.2-6.4,10.5-15.2,16.9-15.7
		c2.5-0.2,5-0.1,7.4-0.1c60.3,0,120.5,0,180.8,0c5.1,0,10.3-0.1,14.4,0.6c-4.1-0.1-9-1.8-13.9-3.1c-61-15.4-121.9-31.4-182.8-46.9
		c-14.6-3.7-29.1-7.7-43.8-11.2c-7.4-1.8-7.4-1.8-7.6,5.4c-0.5,1.3-1.4,2.1-2.8,2.2c-2.8-2.8-1.7-6.8-3.2-10
		C166.8,16.2,168.2,15.2,169.8,14.4z"/>
	<path id="XMLID_338_" class="st4" d="M148.1,148.2c-0.7,0-1.4,0-2.1,0c-0.1-13.5-0.1-27-0.2-40.5c0-2,0.7-4.2-2.8-4.2
		c-20.7,0.2-41.5,0.3-62.2,0.4c-0.7-0.6-1.2-0.4-1.8,0.2c-0.7,0.2-1.4,0.2-2.1,0.1c-1.2-0.3-2.4-0.2-3.6,0.2
		c-1.2,0.3-2.4,0.3-3.6,0.1c-1.1-0.3-2.2-0.4-3.3-0.1c-0.9,0.2-1.8,0.2-2.7,0c-1.1-0.3-2.2-0.2-3.3,0.1c-1.1,0.3-2.3,0.2-3.4,0
		c-1.1-0.3-2.2-0.3-3.4,0c-1.2,0.3-2.4,0.3-3.6,0c-1-0.2-1.8-0.7-2.8-0.9c-6.3,0-12.6,0.1-18.8-0.1c-1.3,0-3.1,1-3.9-1.2
		c0.5-1.1,1.2-1.9,2.4-2.3c3.4-0.7,6.8-0.4,10.3-0.4c157.1,0,314.3,0,471.4,0c3.6,0,7.2,0.2,10.8-0.3c1-0.4,2-0.9,3-1.3
		c2.1,4.1,0.8,5.6-3.8,5.6c-24.2-0.1-48.5,0.1-72.7-0.2c-4.4,0-5.7,1.1-5.3,5.4c0.4,4,1.1,8.5-4.4,10.4c-1.6,0.5-1,2.7-1,4.2
		c0,6.9,0,13.7,0,20.6c0,2,0,3.4,2.3,5.1c3,2.3,2,6.9,0.8,9.9c-0.8,2.2-4.5,1.1-6.9,0.8c-2.3-0.3-2.9-9.4-0.4-10.8
		c2.4-1.3,2.1-2.8,2.1-4.6c0-5.5,0-11.1,0-16.6c0-4.2,1.4-9-4.7-10.6c0.9-5.3-8.7-6.6-4.4-13.3c-75.1,0-149.6,0-224.4,0
		c1.2,2.5,1.7,5.1,0.7,7.7c-1.6,0-2.1-1.3-2.8-2.4c-1.6-2.4-3.9-3.7-6.8-3.7c-13-0.3-25.9-0.3-38.9,0c-0.8,0-1.5,0.4-2.1,0.7
		c-1.8,1.4-1.5,3.4-1.5,5.2c0,11.3-0.1,22.7,0.1,34c0,0.3,0,0.7,0.1,1C148.7,147,148.5,147.6,148.1,148.2z"/>
	<path id="XMLID_337_" class="st5" d="M522.5,98c-0.4,0.3-0.8,0.7-1.2,1c-2.8,1.9-5.9,1-8.9,1c-159.2,0-318.4,0-477.6,0.1
		c-3,0-6.1-0.6-9,0.8c-0.4,0.5-0.8,1-1.2,1.4c-0.1-2.2-1.2-4.2,2.6-5.3c3.9-1.1-0.7-3.2-0.6-4.9c-0.5-0.9,0.2-1.5,0.6-2.2
		c0-0.2,0.1-0.4,0.1-0.6c0.5-9.3,4-11.4,13-7.8c-0.5,3.8-3.7,2.3-5.8,3.1c-4.9,0.5-2.5,4.3-2.9,6.7c-0.4,2.6,1.4,3.7,3.9,3.8
		c1.3,0,2.7,0.1,4,0.5c3.4,2.8,7,1.5,10.5,0.2c7,0.3,14,0,21,0.2c4.5,0.1,6.5-1.5,6.6-6.2c0.3-12.1,0.5-12.1-11.8-12.2
		c-5.3,0-10.6,0.6-15.9-0.6c-1.2-0.7-2.6-1.3-1.5-3.1c9.7-0.1,19.3-0.1,29-0.4c3-0.1,3.6,1.2,3.4,3.7c-0.1,1.7-0.1,3.4-0.1,5.1
		c0.3,0.8,0.9,1.5,1,2.4C82,86,82,87.1,82,88.3c0,0.8,0,1.6,0,2.3c0,1.6-0.4,3.2,0.7,4.7c0.7,0.6,1.4,1,2.3,1c3.3-0.4,4-1.8,1.9-4.5
		c-0.5-1.3-0.1-2.6,0.1-3.9c0.1-1.1,0.3-2.2,0.8-3.2c3.1-2.9,3.7,0,4.7,2c0.1,0.5,0.2,1.1,0.2,1.7c-0.1,1.1-0.3,2.1-0.3,3.2
		c-0.1,2.6,0.4,4.6,3.6,4.6c3.6,0.1,3.8-2.4,3.7-5c0-0.8,0-1.6,0-2.4c0-1.1,0.1-2.2,0.4-3.3c0.6-1.4,1.5-2.4,3.2-1.6
		c0.4,0.4,0.6,0.9,0.6,1.4c-0.3,2,0.2,4.1,0.2,6.1c-0.5,3.5,1,5,4.5,4.8c4.1-0.3,3.5-3.2,3.3-5.9c1.2-2-1.4-6.2,3.5-5.9
		c2.7,3.4,5.6,4,8.7,0.5c0.8-1.2,1.8-2,3.3-1.1c0.3,0.4,0.5,0.9,0.5,1.5c-0.3,2.1,0.3,4.1,0.8,6.1c0.4,1.9-0.1,4.5,2.8,4.5
		c3.7,0.1,3.4-3.1,3.9-5.5c1.6-1.8-0.9-6.2,3.9-6.1c1.6,2.6,5.5,4.7,1.9,8.6c-0.8,0.9-0.5,2.2,0.8,2.8c1.3,0.6,2.6,0.3,3.7-0.6
		c1.6-1.4,1.7-3.8,3.1-5.3c0.8-0.6,1.5-0.4,2.1,0.3c0.5,0.6,0.7,1.4,1,2.1c0.3,1,0.8,1.8,1.6,2.4c3.5,0.6,7,1,10.4-0.4
		c2.3-4.8,0.1-10,1.5-14.9c-0.8,0.1-1.5,0-1.8-0.9c1.7-7.5,1.4-15.1,1.3-22.7c-0.1-4.4-1.3-8.2-5.8-10.2c-0.8-0.4-1.4-1-1.7-1.9
		c-0.7-3-0.2-5.7,1.3-8.3c0.8-1.7,2.7,0.1,3.7-1.1c3-4.1,4.1-8.4,1-12.9c-1.6-0.8-2.3-2.1-1.6-3.8c6.5-4.5,3.3-11.6,5.8-17.6
		c0,3.3,0,6.6,0,9.9c0,1.8-0.5,3.9,2.2,4.4c-0.7,1.1-1.5,2.3-2.2,3.4c1.9,3.2-0.5,7.4,2.6,10.3c0.6-0.4,1.2-0.8,1.8-1.2
		c0.8,0.6,1,1.5,0.9,2.4c-0.2,0.9-0.7,1.6-1.3,2.3c-4.4,4.9-2.1,10.7-2.1,16.2c0,1.3,0.9,2.5,1,3.8c0,0.9-0.4,1.6-0.9,2.3
		c-1,6-0.2,12.1-0.3,18.1c0.1,1.2,0.5,2.3,0.4,3.5c-0.6,4.5-0.3,9.1-0.6,13.6c-0.3,4.7,1.7,6.6,6.3,6.2c2.4-0.2,4.9,0.2,7.1-1.4
		c0.7-0.5,1.5-0.9,2.5-0.5c2.5,3.2,6,3.2,9.7,3.2c2.4,0,4.8-0.7,7.2,0.3c8.9,2.1,17.9,2.4,26.8-0.2l0.4,0c9,2.5,18,2.5,27,0
		c0.2-0.1,0.5-0.1,0.7-0.2c0.4,0.4,0.7,1.2,1.1,1.2c8.5,0.5,17.1,1.8,25.5-0.8c0.3-0.4,0.6-0.4,1,0c8.2,2.8,16.7,0.8,25,1.2
		c0.4,0,0.8-1.4,1.2-2.2c1.2-0.7,2.5-0.5,3.7,0c0.4,0.8,0.9,2.3,1.3,2.2c8.1-0.5,16.3,1.8,24.2-1.4c0.2-0.1,0.5-0.2,0.7-0.2
		c0.9,1.9,2.7,1.8,4.5,1.8c6.3-0.1,12.6-0.2,18.8-0.4l0.5-0.1c0.9-0.3,1.8-0.6,2.8-0.9c0.5-1,1-1.8,2.3-1.1c0.6,1.3,0.7,2.6,2.9,2.5
		c6-0.3,11.9-0.3,17.9-0.4c0.5-0.4,1.1-0.5,1.6-0.1c0.9-0.3,1.9-0.7,2.8-1c0.3,0,0.5,0,0.8,0c8.9,2.4,17.8,2.3,26.8,0
		c0.7-0.6,1.4-0.6,2.1-0.1c1.8,2.6,4.6,1.6,6.8,1.4c6.1-0.5,12.4,1.6,18.3-1.2c0.7-0.6,1.5-0.7,2.3-0.2c6.9,3.3,14.3,0.6,21.4,1.4
		c1.9,0.2,2.7-0.9,2.7-2.7c0.5-0.1,0.8,0,1.1,0.4c0.5,0.6,0.9,1.6,1.5,1.6c8.4,0.7,16.8,1.9,25.1-0.8
		C509.6,98.6,516.2,96.1,522.5,98z"/>
	<path id="XMLID_333_" class="st6" d="M103.4,90.8c-0.7-1.9-2.6-3.8,0-5.6c1.2,1.6,2.9,2,5,1.8c-1.6-0.8-3.7-0.2-4.9-1.8
		c-0.9-1.2-1.6-1-2.3,0.1c-2.6,1.7-5.7,1.6-8.6,2.3c-2.4,1-0.8-4.8-4-2.3c-2.5,1.8-5.1,1.9-7.7,0.3c0-1,0-2,0-3.1
		c8.2,1.6,14.8,0.5,21.3-6.3c19.4-20,39.7-39.2,59.7-58.7c0.7,1.2,1.4,2.3,2.1,3.5c2.5,2.8,0.2,5.8,0.2,8.7c0,2.2-2.1,4.1-1.1,6.5
		c-1.8,2.1-1.8,2.1-3.3-1.3c-2.4-3.4,0.6-6.9-0.4-11c-18.9,18.9-37.6,37.6-56.4,56.4c1.2,1.8,2.9,1.1,4.2,1.1c9.9,0.1,19.8,0,29.8,0
		c1,0,1.9,0,2.9,0.1c1.9,0.2,3.9-0.1,5,2c0.4,0.8,0.1,1.6-0.6,2c-1.8,1.2-3.6,1.2-5.3-0.1c-2.1,1.2-0.5,4.1-2.3,5.5
		c-3.1,2.3-6.1,2.3-9.2,0.1c-0.7-1.9-2.7-3.8,0-5.7c1.2,1.6,2.9,2,5,1.8c-1.6-0.8-3.7-0.2-4.9-1.8c-0.9-1.2-1.6-1-2.3,0.2
		c-3.4,2.2-6.8,2.2-10.2,0c-2.2,1.2-0.4,4.1-2.3,5.4C109.6,93.3,106.5,93.2,103.4,90.8z"/>
	<path id="XMLID_329_" class="st7" d="M916.6,385.5c0-0.9-0.1-1.8-0.1-2.6c1.4-1.4,3.4-1.6,5.1-2.4c6.9-3.3,10.8-10.7,8.9-17.3
		c-2.2-7.7-9.3-12.3-17.4-11.3c-9.6,3.2-12.6,7.7-12.1,17.9c0.7,4.2,3.4,7.1,6.7,9.4c2.6,1.9,4.9,2.5,5.1-2c0.1-1.6-0.1-3.5,1.6-4.5
		c1.7,4.2,1.5,8.4-0.2,12.6c-10.6-2-17.3-9.6-16.9-19c0.4-9.4,7.7-17.1,16.8-17.8c9.9-0.7,18.3,5.6,20.3,15.4
		C936.7,374.5,928.7,384.1,916.6,385.5z"/>
	<path id="XMLID_328_" class="st8" d="M148.1,148.2c0-0.4,0-0.7,0-1.1c2-2.1,4.5-1.7,7-1.7c7.6-0.1,15.2,0,22.9,0
		c2.3,0,4.6,0,7.2-1.3c-1.5-1.3-3-0.9-4.3-0.9c-8.6-0.1-17.1,0.2-25.7-0.2c-2-0.1-4.9,0-4.8-2.8c0.1-2.7,2.9-2.6,4.9-2.7
		c9.1-0.3,18.3-0.1,27.4-0.1c6.9-0.1,7.6-0.7,9.5-7.4c1.4-5.1,2.5-10.4,4-15.5c0.6-2.1,0.7-4.7,3.4-5.5c0.4,0.9,0.7,1.7,1.1,2.6
		c-2,7.7-3.9,15.5-5.9,23.2c-1,3.7-2.1,7.5-5,10.1c-2.8,2.5-4.3,5.5-4.9,9.1c0.6-4.8-1.6-5.9-6.2-5.8
		C168.4,148.5,158.3,148.2,148.1,148.2z"/>
	<path id="XMLID_327_" class="st9" d="M33.6,83c2.3-0.4,4.8,0.6,6.9-1.2c3.6,0.4,1.6,3.5,2.5,4.9c-0.7-6.6-5.3-9.3-11.4-6.8
		c-2.7,1.1-3.7,2.9-3.8,5.7c-0.1,1.8,0.8,3.7-0.2,5.4c-0.3,0.4-0.6,0.8-0.9,1.1c-3.1-5.6-2.4-10.5,1.9-14.1c4-3.3,10.2-3.2,14.1,0.3
		c4.9,4.4,4.7,9.1-0.7,18c5.4,1.1,5.2,1.1,5.5-3.9c0.3-6.1-1.3-12.4,1-18.4c0.3,0.7,0.7,1.3,1,2c2.9,6.9,3,13.7,0,20.5
		c-3.4,2-6.8,1.9-10.2,0.1c-1.9-2.4-1.5-6-6-7.1C30.5,89,30.4,85.2,33.6,83z"/>
	<path id="XMLID_324_" class="st5" d="M61,103.6c0.7-1.1,1.4-1.3,2.3-0.2c2.1,1.9,1,5,2.3,7.6c1.3-2.8,0.3-5.4,1.2-7.7
		c0.9-1.1,1.7-0.9,2.3,0.3c1.9,1.9,0.9,4.6,2.2,7.3c1.4-2.5,0.2-5.5,2.2-7.3c1-1.6,2.2-1.4,3.5-0.4c-0.2,2.3-1.4,4.6,0,7.5
		c1.5-2.4,0.3-5.4,2.2-7.1c0.7-1,1.1-0.5,1.5,0.2c0.3,11.3,0.3,11.3-11,11.3c-5.5,0-11-0.3-16.5,0.1c-5,0.4-6.4-1.5-5.8-6.1
		c0.2-1.8-0.1-3.8-0.2-5.6c0.8-1.1,1.6-1,2.3,0.1c1.9,1.9,1.1,4.6,2.1,7.6c1.5-2.8,0.3-5.8,2.4-7.7c0.9-1.2,1.6-1,2.4,0.1
		c2,1.9,0.9,4.7,2.2,7.3C60.2,108.4,59,105.5,61,103.6z"/>
	<path id="XMLID_302_" class="st10" d="M649.4,331.8c-1.5,3.2-4.4,1.7-6.6,1.7c-115,0.1-230.1,0.1-345.1,0.1c-2.1,0-4.2,0-6.3,0.1
		c-0.6-4.2,2.7-2.4,4.1-2.4c10.9-0.2,21.7-0.1,32.6-0.1c104.8,0,209.7,0,314.5,0C644.9,331.2,647.2,330.8,649.4,331.8z"/>
	<path id="XMLID_258_" class="st11" d="M507.5,393.7c-5.2,2.6-5.3,6.1-5.8,10.1c-2.7-3-2.3-7.4-6.3-9.5c0.1,3.3,3.5,5.2,2.8,9.1
		c-10.6,0-21.3,0-32.1,0c-2.4,0-2.5-1.7-3.2-3.2c-1.6-3.6-4.6-5.7-8.5-5.7c-3.9-0.1-7.1,1.8-8.6,5.5c-1.1,2.7-2.5,3.6-5.4,3.5
		c-5.3-0.3-10.6-0.1-17.6-0.1c10.7-4.8,10.3-12.9,8.4-20.9c-1.6-6.6-7.4-9-13.5-9.5c-3.2-0.3-3.7-1.4-3.7-4.1
		c0.1-10.1,0-20.2,0.1-30.3c0-1.3-0.8-3.2,1.6-3.6c2-0.3,3.2,0.5,3.9,2.4c1.4,3.5,2.8,7,4.4,10.5c4.8,10.6,14.3,16.4,25.4,15.8
		c11.3-0.7,20.5-8,23.8-18.9c3-9.8,3-9.8,13-9.8c11.6,0,23.3,0.1,34.9-0.1c3.2,0,4.2,0.9,4.2,4.2c-0.1,20-0.2,40,0,60.1
		c0,3.8-1.3,4.5-4.6,4.3c-3.8-0.3-7.6,0-11.4-0.1c-5.9,0-6.7-1.3-3.7-6.5C505.8,396.4,506.2,395.8,507.5,393.7z"/>
	<path id="XMLID_256_" class="st11" d="M579.3,368.9c0-9.7,0.2-19.4-0.1-29.1c-0.1-3.9,1.2-4.8,4.9-4.8c16.6,0.2,33.1,0.2,49.7,0
		c3.5,0,4.5,0.9,4.5,4.4c-0.2,12.8-0.2,25.5,0,38.3c0,2.9-0.4,4.3-3.8,4.7c-6,0.7-10.1,4.3-11.7,10.2c-0.7,2.4-0.9,3.3-3.9,2.1
		c-5.6-2.1-10.5,0.2-12.3,5.8c-0.9,2.7-2.1,3-4.4,2.9c-6.1-0.1-12.2-0.3-18.3,0.1c-4.1,0.3-4.7-1.5-4.6-5
		C579.4,388.7,579.3,378.8,579.3,368.9z"/>
	<path id="XMLID_255_" class="st11" d="M372.4,336c6.5-1.9,13.1-0.5,19.7-0.8c5.5-0.2,11-0.1,16.6,0c1.6,0,3.9-0.7,3.8,2.1
		c-0.4,12.3,1.1,24.6-0.8,36.8c-3,3.6-6.7,6.6-7.7,11.7c-1.3,7,1.3,12.2,6.5,16.5c0.2,0.1,0.4,0.2,0.5,0.3c0.2,0.2,0.3,0.5,0.4,0.7
		c-5.7,0-11.3,0-18.3,0c4-1.7,6.5-3.7,7.2-7.2c0.6-3.3,0.2-6.4-2-9.1c-3.6-4.4-11.3-5.2-16-1.5c-4.5,3.5-4.1,10.8,1.1,18.2
		c-3.8-0.4-7.5,1.1-11-1c-2.8-6.8-1.1-13.9-1.3-20.9c-0.2-4.5-1-9.2,1.4-13.5c0.2-0.4,0.2-0.7,0-1.1
		C370.2,356.6,369.9,346.3,372.4,336z"/>
	<path id="XMLID_254_" class="st12" d="M527.1,369.2c0-9.9,0.2-19.8-0.1-29.8c-0.1-3.6,1-4.7,4.5-4.4c4.2,0.3,8.4,0.3,12.6,0
		c3.7-0.3,4.5,1.2,4.4,4.6c-0.1,19.8-0.1,39.7,0,59.5c0,3.6-1.2,4.6-4.6,4.4c-4.2-0.3-8.4-0.3-12.6,0c-3.8,0.3-4.4-1.3-4.3-4.6
		C527.2,389.1,527.1,379.1,527.1,369.2z"/>
	<path id="XMLID_253_" class="st13" d="M301.8,335c11.6,0,23.3,0.2,34.9,0c3.6-0.1,5,0.7,4.9,4.7c-0.2,19.8-0.2,39.7,0,59.5
		c0,3.6-1.1,4.5-4.5,4.4c-8.4-0.2-16.8-0.1-25.2,0c-4.1,0-6.4-2.1-7.8-5.6c-0.2-5.8-0.3-11.5-2.6-17.2c-1.3-3.3,1.9-6.7,6.3-7.1
		c4.1-0.4,8.1-0.5,12-2.7c2.7-1.6,3.6-0.5,2.9,2.6c-0.1,0.3-0.5,0.5-0.5,0.4c0.3-0.2,0.6-0.4,1-0.5c1.8-0.4,2.6-1.4,1.9-3.3
		c0-0.6,0.2-1.1,0.6-1.5c9.8-5.1,12.7-9.7,10.6-16.8c-1.8-6.3-9.9-12.8-16.5-13.2c-3.4-0.2-6.8,0.6-10.2,0c-2.1-0.4-3.6,0.9-4,3.2
		c-0.2,1.1-0.3,2.4-1.9,2.2c-1.4-0.1-2.6-0.9-3-2.3C300.1,339.4,299.4,336.9,301.8,335z"/>
	<path id="XMLID_250_" class="st14" d="M448.8,335.1c7.2,0,14.4,0,21.7,0c1.4,0,3.5-0.5,2.9,2.1c-2.1,8.8-4.9,17.2-13.7,21.9
		c-8.4,4.5-16.8,4.3-24.8-0.8c-6.6-4.2-10.3-10.4-11.1-18.3c-0.4-3.6,0.4-5.2,4.5-5C435.1,335.3,441.9,335.1,448.8,335.1z"/>
	<path id="XMLID_249_" class="st15" d="M914.4,372.6c0,0.9,0.2,1.9,0,2.8c-0.5,2.4,1.6,6-1.2,7.1c-2.8,1.1-5.7-1.3-8-3.2
		c-2.8-2.3-4.9-5.2-5.5-8.9c0.2-9.5,4.5-16.3,13.5-19.9c9.4-1.6,18.4,5.2,19.3,14.7c0.9,9.4-6.1,17.2-15.8,17.7
		c-0.6-6.2,0.2-12.2,4-18.4c-3.6,1.3-3.2,4-4.8,5.4c-2.4,0.2-2-3.4-5.3-3.6C912,368.7,913.2,370.6,914.4,372.6z"/>
	<path id="XMLID_246_" class="st16" d="M413.8,375c9.8-0.3,15.2,3.4,15.8,10.7c1.1,13.5-3,17-17.8,15.3c-1.8-0.3-3.6-0.6-4.8-2.3
		c-4.1-5.7-2.8-11.7-1.3-17.8C406.7,376.7,409.9,375.4,413.8,375z"/>
	<path id="XMLID_245_" class="st17" d="M301.8,335c0.1,3-2.2,6.9,2.5,8.6c1.4-2.2-3.8-1.7-0.9-3.8c2.2-1.6,4.4-4.6,7.2-2.9
		c1.9,1.1,2.9,0.6,4.5,0.3c10.8-2.2,22.7,7.3,23,18.2c0.2,8-2.8,11.3-12.5,14c-3.8,0.7-7.6,0.4-11.3,0.2c-2.2-0.1-5.2-0.3-4.5-4
		c2.3-1.2,4.5-0.2,6.7,0.3c4.5,1.1,8.7,0.1,12.8-1.5c4.8-1.9,5.8-5.4,4.2-13.7c-3.5-7.6-10.7-11.6-18.2-10.1c-4,1.5-7.1,4.2-7.4,8.5
		c-0.2,3.1-4.2,3.1-4.1,6.2c0.9-0.3,1.1-1.2,1.6-1.7c1.9-2.2,3.3-5.4,7.1-4.6c4,0.8,4.9,4.1,6,7.4c0.9,3,0,4.6-2.6,5.9
		c-1.7,0.8-3.5,1.4-5.3,1.9c-2.9,3.9-0.1,4.9,2.9,5.5c4.1,0.7,8.2-0.3,12.3,0.5c2.5,0.9,2.5,2.4,0.3,3.4c-2.1,0.9-4.4,2.3-7,1.1
		c1-1.9,3.3-1.3,4.4-3.1c-5.7,2.3-11.3,4.4-17.7,4.2c-1.8-0.1-4.5,3.2-2.6,6.6c2.8,5,3.4,10.3,1,15.6c-0.4,0-0.9,0-1.3,0
		c-1.2-1.1-0.5-2.4-0.5-3.7c0.4-7-2.7-12.5-7.9-16.9c0.4-0.3,0.9-0.7,1.3-1c0.4-0.7,1.1-1.1,1.9-1.1c3.8,0.1,4.2-1.5,2.5-4.5
		c-0.7-1.2-2.2-2.8-0.4-4c1.8-1.1,3.1,0.5,4.3,1.7c1.6,1.7,2.7,4.2,5.9,4.1c-3.3-0.8-4.9-3.1-5.9-5.9c-1-3.1-2.6-2.5-4.6-1
		c-2.5,1.8-3.5,5.5-7.1,5.9c-0.1-0.6-0.1-1.1-0.2-1.7c2.4-6.5,2.7-13.5,4.5-20c1.4-4.9-0.5-10.3,2.3-14.9
		C300,335,300.9,335,301.8,335z"/>
	<path id="XMLID_244_" class="st18" d="M875.3,364c7.3-3,14.1-0.6,17.1,6c2.8,6.2,0.2,13.5-5.9,16.5c-3.1,1.5-4.9,1.6-4.9-2.7
		c0-3.4,1.3-6.2,2.4-9.8c-2.5,0.4-3.7,6.5-7.1-1.3c0.8,5.3,3.5,7.1,2.9,10c-0.3,1.6,0.9,3.7-1,4.6c-1.7,0.8-3.3-0.5-4.7-1.5
		c-2.1-1.5-4.4-3.1-4.7-6.1C867.4,373,870.7,368.3,875.3,364z"/>
	<path id="XMLID_242_" class="st19" d="M642.9,393.7c-3.4,2.3-4.2,6.5-6.9,9.7c-2-1.3-0.9-5-4.4-5.4c0.6,1.6,1.2,3.1,1.7,4.6
		c-6.9,1.9-9.3,0.2-9.2-6.5c0.1-5.1,2.4-8.8,6.9-10.9c4.7-2.2,9.3-1.8,13.4,1.4c3.9,3,5.3,7,4.5,12.1c-1.1,6.9-5.9,4.3-10.1,4.9
		C639.5,399.6,642.2,397.1,642.9,393.7z"/>
	<path id="XMLID_239_" class="st20" d="M372.4,368c0,11.5,0,22.9,0,34.4c-1.2-0.4-2.4-0.7-3.5-1.1c-1.2-0.1-1.3-0.7-0.7-1.6
		c1.7-5.4,0.2-10.8,0.6-16.3c0.2-2.8,0-5.6,0.2-8.4c-0.7,0.1-0.9,0.7-1.2,1.1c-7.1,9-7.1,9-0.6,18.2c0.9,1.3,1.9,2.4,1.4,4.1
		c-3.3,2.8-4.3-0.7-5.7-2.2c-6.1-6.6-5.9-6.6-11.9,0.3c-1.6,1.8-2.4,5-5.8,4.6c-0.4-0.4-0.7-0.7-1.1-1.1c-0.3-4.4,3.7-6.2,5.8-9.2
		c3.9-5.6,4.2-5.9-0.2-11.1c-2.5-2.9-5-5.7-6.6-9.2c0.7-3.1,3.1-2.8,5.3-2.8C356.3,367.9,364.4,368,372.4,368z"/>
	<path id="XMLID_238_" class="st21" d="M398.5,393.5c-0.1,4.7-5.5,9-10.8,8.7c-4.3-0.3-7.4-4.6-7.2-10c0.2-5.2,3.5-7.6,10-7.3
		C395.1,385.1,398.6,388.9,398.5,393.5z"/>
	<path id="XMLID_237_" class="st22" d="M299,335c0.3,12.1-0.1,24.1-6.8,34.9c-2.6-1-1.4-3.2-1.4-4.9c-0.1-7.2-0.1-14.4-0.1-21.5
		C290.7,335.1,290.7,335.1,299,335z"/>
	<path id="XMLID_236_" class="st23" d="M343,370.7c4.6,3.7,7.5,8.9,11.4,13.2c1.7,1.9,0.2,3.1-0.8,4.3c-3.2,4-6.4,7.9-9.6,11.9
		c-2.1-5.8-0.5-11.8-0.9-17.6C342.8,378.6,343,374.7,343,370.7z"/>
	<path id="XMLID_235_" class="st24" d="M550.2,370.6c0.6-2.3,2.3-2.7,4.3-2.7c6,0,12.1,0.1,18.1,0c2.8-0.1,4.2,1.2,4.9,3.6
		c-2,3.6-4.5,7.1-7.5,9.9c-3.4,3.2-3,5.7,0.1,8.7c3,2.9,5.6,6.1,7.3,10c-0.7,2.2-1.8,3.6-4.4,3.5c-6.2-0.1-12.4-0.1-18.6,0
		c-2.6,0-3.7-1.3-4.4-3.5c2-3.9,4.8-7.2,7.7-10.5c2.6-2.9,3-5.4-0.1-8.2c-1.8-1.6-3.1-3.8-4.5-5.8c-1.2-1.7-1.9-3.4,0.9-4.4
		c4.4,2.3,6.2,7,9.9,10.5c3.2-3.1,5.5-7,9.3-10.9c-7.5-0.1-14-0.5-20.5,0.1C551.7,371.2,550.9,371.2,550.2,370.6z"/>
	<path id="XMLID_234_" class="st25" d="M550.2,370.6c0.7-0.1,1.4-0.1,2.2-0.2c0.7,0.1,1.1,0.5,1.3,1.1c-1.3,4.4,2.7,6.3,4.8,8.5
		c3.9,4.1,3.9,7.3-0.2,11c-3,2.7-4.6,6.8-8.2,9C550.1,390.2,550.2,380.4,550.2,370.6z"/>
	<path id="XMLID_233_" class="st26" d="M345.3,363.6c-0.8,0.4-2.1,2.1-2.2-0.2c-0.2-8.2-0.1-16.3,0-24.5c0-1.9,1.1-1.5,2.2-0.7
		c4.4,2.2,6.9,6.3,9.8,10.1c1.3,1.7,1.3,3.5,0,5.2C352.3,357.3,349.7,361.3,345.3,363.6z"/>
	<path id="XMLID_232_" class="st13" d="M367.9,400c0.3,0.5,0.6,0.9,0.9,1.4c-7.9,1.8-15.8,1.9-23.7-0.1c3.9-4.5,7.8-9.1,11.8-13.7
		c4.4,3.3,6.1,9.2,11.2,11.6C368,399.5,368,399.7,367.9,400z"/>
	<path id="XMLID_231_" class="st13" d="M577.5,400c-4.5-3.5-7.2-8.6-11-12.7c-1.1-1.2-1.1-2.2-0.1-3.4c3.8-4.1,6.4-9.2,11.1-12.5
		C577.5,381,577.5,390.5,577.5,400z"/>
	<path id="XMLID_230_" class="st27" d="M550.1,364.6c0-9.1,0-18.2,0-27.3c4.2,1,13.4,10.8,13.2,14
		C563.1,354.3,553.8,363.6,550.1,364.6z"/>
	<path id="XMLID_229_" class="st28" d="M552.7,335c7.4,0,14.9,0,22.3,0c1.5,1.1,0.7,2.3,0.1,3.4c-0.8,1.3-1.9,2.3-2.8,3.5
		c-7.2,9.5-7.8,9.5-15.3,0.3C555.2,340.1,551,339.2,552.7,335z"/>
	<path id="XMLID_228_" class="st25" d="M576,365.9c-7.8,2.3-15.7,0.4-23.6,1c1.2-6.4,6.6-9.6,10.5-14c1-1.1,2.6-0.2,3.6,0.7
		C570.3,357.1,574,360.8,576,365.9z"/>
	<path id="XMLID_227_" class="st29" d="M346.2,337.2c-0.1-0.8-1.1-2,0.6-2c6.8-0.1,13.7-0.1,20.5,0c1.7,0,0.8,1.2,0.7,2
		c-1.4,5.1-5.9,7.9-8.8,11.8c-1.1,1.5-2.8,1.5-3.8-0.1C352.6,344.7,348.2,341.9,346.2,337.2z"/>
	<path id="XMLID_226_" class="st25" d="M368,364.6c0.2,0.8,1.7,2.2-0.6,2.2c-6.9,0.1-13.9,0.1-20.8,0c-2.3,0-0.6-1.4-0.5-2.3
		c2-4.8,6.6-7.6,9.3-11.9c0.9-1.4,2.4-1.3,3.4-0.1C362,356.6,366.6,359.4,368,364.6z"/>
	<path id="XMLID_225_" class="st30" d="M577.4,337.3c0,9,0,18.1,0,27.1c-6-2.2-8.1-8.3-12.2-12.4c-0.5-0.5-0.3-1.6,0.1-2.2
		C569.1,345.4,571.7,339.8,577.4,337.3z"/>
	<path id="XMLID_224_" class="st13" d="M370.2,364.4c-0.5-0.3-0.9-0.5-1.4-0.8c-13.8-13.9-13.8-11.5,0-25.4c0.4-0.3,0.9-0.5,1.3-0.8
		c2.3,3,1.3,6.6,1.1,9.8C371,352.9,372.8,358.8,370.2,364.4z"/>
	<path id="XMLID_223_" class="st31" d="M294.5,377.3c6.1,1.9,10.1,8.4,9.2,15c-0.2,1.8-0.6,3.7-0.8,5.5c-2.2,1.1-1.4-1-1.4-1.5
		c-0.3-5.7-3.1-10-7.9-14.5c1.3,4.1,1.1,7.7-2.6,8.7c-3.1,0.8-6.6,0.2-10.2-0.2c7.3,0.3,9.2-4.2,9.4-10.1
		C290.3,377.2,292.2,377.1,294.5,377.3z"/>
	<path id="XMLID_222_" class="st32" d="M292.4,371.6c2.6-2.8,4.5-6.2,7.7-8.3c2.4-1.6,4.2-2.5,4.8,1.8c0.8,5.2,4.5,7.5,10.7,6.7
		c-6.6,3.2-7.4,2.9-15.2-4.9c-0.7,1.9,0.8,2.8,1.4,3.9c0.7,1.4,2.3,2.4,1.1,4.5c-1.4,2.5-3.2,1.4-5,1.1c-0.7-0.1-1.5,0-2.3-0.1
		C293.4,375.6,289.8,375.8,292.4,371.6z"/>
	<path id="XMLID_221_" class="st33" d="M577.4,337.3c-13.5,12.2-13.5,15,0,27.1c-0.5,0.5-1,1-1.5,1.5c-3.3-3.7-6.6-7.3-9.9-11
		c-1.3-1.5-2.4-2.6-4-0.4c-3.1,4.2-7.4,7.6-9.8,12.4c-1.3-0.3-2.1-1-2.3-2.3c4.7-3.2,7.5-8.3,11.4-12.2c1-1,1-1.9,0-2.9
		c-3.9-4-6.7-9-11.4-12.2c0.3-1.4,1.2-2.1,2.6-2.2c2,5.2,6.7,8.4,9.9,12.8c0.8,1.2,1.9,1.2,2.8,0c3.1-4.4,8-7.4,9.6-12.8
		C576.5,335,577.1,336.1,577.4,337.3z"/>
	<path id="XMLID_220_" class="st11" d="M280.1,361.6c-1.1,0-2.3-0.1-3.4,0c-3.3,0.3-5.1-0.2-5.1-4.4c0-4,1.7-4.3,4.8-4.1
		c2.1,0.2,4.2-0.1,6.3,0.1c2.7,0.3,6.4-1.9,6.5,4c0.1,6.2-3.9,4-6.8,4.4C281.6,361.7,280.8,361.6,280.1,361.6z"/>
	<path id="XMLID_219_" class="st34" d="M280.8,342.9c1.3,0,2.7,0.1,4,0c2.9-0.3,4.5,0.3,4.3,3.8c-0.2,2.8,0.1,5.3-4,4.8
		c-2.2-0.3-4.5,0-6.8-0.1c-3-0.2-6.7,1.6-6.7-4.4c0.1-5.8,3.7-3.7,6.4-4.1C278.9,342.8,279.9,342.9,280.8,342.9z"/>
	<path id="XMLID_218_" class="st11" d="M280.1,371.8c-1.5,0-3.1-0.2-4.6,0c-3.6,0.5-3.8-1.5-3.9-4.3c-0.1-3.2,0.8-4.5,4.1-4.1
		c2.3,0.2,4.6-0.1,6.8,0.1c2.7,0.3,6.4-2,6.5,3.9c0.1,6.2-3.8,4-6.8,4.4C281.6,371.9,280.9,371.8,280.1,371.8z"/>
	<path id="XMLID_217_" class="st13" d="M271.9,381.7c0-1.7,0.1-3.4-0.1-5.1c-0.2-2.2,0.7-3,2.9-2.9c2.4,0.1,4.9,0,7.4,0
		c8.2,0,8.3,0.1,5.9,8.2C282.5,384.2,277.2,384.5,271.9,381.7z"/>
	<path id="XMLID_216_" class="st13" d="M272.3,393.7c1.9,2.1,2.5,4.7,5.3,1.7c2.6-2.7,7-1.4,10.3-0.8c2.2,0.4,0.7,3.7,1,5.6
		c0.3,2.2-1.1,2.4-2.8,2.4c-2.5-0.1-5,0-7.4,0C271.2,402.6,271.2,402.6,272.3,393.7z"/>
	<path id="XMLID_215_" class="st35" d="M368.8,338.2c-2.7,4.8-9.7,8-9.3,12.9c0.4,4.4,6,8.3,9.3,12.5c-0.3,0.3-0.6,0.7-0.9,1
		c-3.7-3.9-7.4-7.8-11.1-11.7c-3.6,3.9-7.1,7.7-10.7,11.6c-0.3-0.3-0.6-0.7-0.9-1c2.7-4.8,9.7-8,9.3-12.9c-0.4-4.4-6-8.3-9.3-12.4
		c0.3-0.3,0.6-0.7,0.9-1c2.9,3.2,6,6.3,8.6,9.7c1.8,2.3,2.8,2.1,4.5-0.1c2.7-3.4,5.7-6.5,8.7-9.7
		C368.3,337.5,368.6,337.9,368.8,338.2z"/>
	<path id="XMLID_214_" class="st36" d="M280.7,335c1.9,0,3.8,0.1,5.7,0c2.5-0.2,2.7,1.3,2.7,3.2c0,2-0.4,3.2-2.8,3.1
		c-4-0.1-7.9-0.1-11.9,0c-2.4,0.1-2.7-1.3-2.7-3.2c0-2,0.4-3.3,2.8-3.1C276.6,335.1,278.6,335,280.7,335z"/>
	<path id="XMLID_213_" class="st27" d="M296.3,387.7c4,3.8,3.2,8.5,2.7,12.9c-0.3,3.7-3.3,2.8-5.6,2.9c-3.1,0.2-2.2-2.1-2.7-3.8
		C289.3,394.1,293.4,391.3,296.3,387.7z"/>
	<path id="XMLID_212_" class="st37" d="M607.5,404.7c0.7-6,3.3-8.6,7.4-8.9c4.6-0.3,7.2,2.5,8.4,7.4c-3,0.3-5.8,1.8-7.8-1.8
		c-0.4-0.7-1.1-1.1-1.4,0.1C613.1,406,609.9,402.1,607.5,404.7z"/>
	<path id="XMLID_211_" class="st38" d="M40.9,403.6c-1.8-0.2-3.2,0.2-4-1.3c-0.8-1.4-1.4-3.2-2.3,0.2c-0.6,2.2-3.6,1.4-4.9,0.7
		c-1.9-1.2-0.4-3,0.5-4.3c3.2-4.5,9.3-4.3,12.5,0.5c0.7,1.1,1.8,2.4,0.9,3.6C43.1,403.6,41.5,403.5,40.9,403.6z"/>
	<path id="XMLID_210_" class="st39" d="M454.3,396.3c1.3,0.3,2.5,0.4,3.4,1c2.2,1.2,4.8,3.2,3.6,5.6c-0.8,1.6-4,1-6.2,0.2
		c-0.8-0.3-1-2.3-2.4-0.7c-1.7,2-4.6,2.1-5.4,0.2c-1.1-2.2,1.4-4,3.4-5.2C451.7,396.7,453.1,396.6,454.3,396.3z"/>
	<path id="XMLID_209_" class="st40" d="M370.2,364.4c0-9,0-18,0-26.9c0.3-1.2,1.2-1.4,2.2-1.5c0,10.3,0,20.7,0,31
		C371.4,366.3,370.4,365.6,370.2,364.4z"/>
	<path id="XMLID_208_" class="st41" d="M413.8,375c-2.5,1.4-5.7,1.9-7,5.1c-1.6,6.4-4.4,12.9,1.5,18.7c1.2,0.7,2.3,1.5,3.5,2.2
		c-0.4,0.4-0.9,0.7-1.3,1.1c-5.4-1.8-8.4-5.5-8.3-11.3c0.2-7.2,1.2-14,9.4-16.9C412.3,374.3,413.1,374.7,413.8,375z"/>
	<path id="XMLID_207_" class="st42" d="M278.7,388.8c-3.6-2.8-3.8-2.7-5.9,3.8c-1.6-3.1-0.8-5.8-0.9-8.4c5.3-2,10.6-2.1,15.8,0
		c-0.9,5.9-6.4,2.3-9.2,4.4L278.7,388.8z"/>
	<path id="XMLID_206_" class="st43" d="M142,402.7c6-2.9,22.8-2.2,25.9,0C159.7,402.7,150.9,402.7,142,402.7z"/>
	<path id="XMLID_205_" class="st44" d="M160.9,398.7c-6.3,0-12.5,0-18.8,0c0-0.6,0-1.2,0-1.8C148.4,396.9,154.7,396.2,160.9,398.7z"
		/>
	<path id="XMLID_204_" class="st45" d="M279.4,333.6c-2-1-6.5,2-7-1.6c-0.3-1.9,4.9-0.7,7.5-1c2.4-0.3,4.9,0,7.4,0
		c0.8,0,1.5,0.2,1.5,1.2c0,1-0.6,1.3-1.4,1.3C284.9,333.6,282.4,333.6,279.4,333.6z"/>
	<path id="XMLID_203_" class="st46" d="M287.7,384.3c-5.3,0-10.5,0-15.8,0c0-0.9,0-1.7,0-2.6c5.3,0.1,10.7,0.1,16,0.2
		C287.8,382.7,287.7,383.5,287.7,384.3z"/>
	<path id="XMLID_202_" class="st10" d="M156.3,394.2c-4.6,0.9-9.2,1.4-13.8-0.2C147.1,392.8,151.7,392.8,156.3,394.2z"/>
	<path id="XMLID_201_" class="st47" d="M153.5,390.5c-3.8,0-7.5,0-11.3,0c0-0.6,0-1.2,0.1-1.8C146,389,149.8,387.7,153.5,390.5z"/>
	<path id="XMLID_200_" class="st48" d="M875.3,364c-3,4.9-7,9.3-5.8,15.8C866.9,372.5,868.5,368.2,875.3,364z"/>
	<path id="XMLID_198_" class="st49" d="M278.5,388.7c1,2.7-1.2,3.4-3.1,4.8c0-2.7-1.6-5.8,3.3-4.7
		C278.7,388.8,278.5,388.7,278.5,388.7z"/>
	<path id="XMLID_193_" class="st50" d="M179.6,156.7c0,10.5,0,19.1,0,29.4c-4.2-5-7.6-9.2-11.1-13.2c-0.9-1.1-0.8-1.9,0-2.9
		C171.9,165.9,175.3,161.9,179.6,156.7z"/>
	<path id="XMLID_191_" class="st50" d="M179.7,221c0,10,0,18.3,0,28.5c-4.4-5.2-8-9.4-11.5-13.6c-0.8-1,0.1-1.8,0.7-2.4
		C172.1,229.7,175.4,225.9,179.7,221z"/>
	<path id="XMLID_190_" class="st51" d="M179.3,282.3c-3.9-4.5-7-8.3-10.3-11.9c-1.3-1.4-1.3-2.4,0-3.8c3.3-3.6,6.4-7.4,10.3-12
		C179.3,264.2,179.3,272.6,179.3,282.3z"/>
	<path id="XMLID_189_" class="st52" d="M153.8,155.4c8.6,0,16.1,0,24.6,0c-4.3,5.2-8.2,9.8-12.2,14.7
		C162,165.1,158.2,160.5,153.8,155.4z"/>
	<path id="XMLID_188_" class="st53" d="M178.3,286.4c-3.7,4.3-6.9,8-10,11.8c-1.3,1.6-2.3,2.2-3.9,0.2c-3.1-3.8-6.3-7.5-10.1-12
		C162.6,286.4,170.1,286.4,178.3,286.4z"/>
	<path id="XMLID_35_" class="st54" d="M178.5,284.5h-24.3c3.9-5,7.3-8.9,10.8-12.9c1.8-2,2.6,0.1,3.5,1.1
		C171.6,276.3,174.7,279.5,178.5,284.5z"/>
	<path id="XMLID_186_" class="st55" d="M154.4,250.7c0.9-1.2,1.3-1.8,1.8-2.4c11.2-13.4,11.4-13.3,21.5,2.4
		C170.1,250.7,162.6,250.7,154.4,250.7z"/>
	<path id="XMLID_185_" class="st56" d="M154,252.8c8.7,0,16,0,24.6,0c-4,4.6-7.4,8.5-10.7,12.4c-1.5,1.8-2.4,1-3.6-0.3
		C161.2,261.2,158,257.5,154,252.8z"/>
	<path id="XMLID_184_" class="st57" d="M154,219.5c8.7,0,16,0,24.5,0c-3.9,4.6-7.3,8.5-10.6,12.4c-1.5,1.8-2.4,1-3.6-0.4
		C161.2,227.9,158,224.2,154,219.5z"/>
	<path id="XMLID_183_" class="st58" d="M152.9,186c0-10.2,0-19,0-29c3.9,4.6,7.1,8.5,10.4,12.3c1.4,1.5,1.5,2.6,0,4.3
		C159.9,177.4,156.8,181.3,152.9,186z"/>
	<path id="XMLID_182_" class="st30" d="M153,254.4c1,1.2,1.4,1.6,1.8,2c11.4,12.9,11.4,12.9-1.8,25.6C153,272.9,153,264.2,153,254.4
		z"/>
	<path id="XMLID_181_" class="st59" d="M152.7,221c1.4,1.5,2,2.1,2.6,2.7c11.1,12.5,11,12.9-2.1,24.4c-0.2-0.3-0.5-0.6-0.5-0.9
		C152.7,239,152.7,230.6,152.7,221z"/>
	<path id="XMLID_180_" class="st58" d="M177.9,187.3c-7.9,0-15.2,0-22.5,0c0-0.6-0.1-1,0-1.3C166.3,171.3,166.3,171.3,177.9,187.3z"
		/>
	<path id="XMLID_179_" class="st60" d="M178.4,217.6c-8.6,0-15.7,0-23.4,0c2.7-4.9,6.9-7.8,10.1-11.5c1.4-1.6,2.3-0.1,3.2,0.8
		C171.4,210.1,174.5,213.5,178.4,217.6z"/>
	<path id="XMLID_178_" class="st61" d="M179.5,190.9c0,8.9,0,16.4,0,24.9c-3.9-3.9-7.2-7.3-10.7-10.7c-1-1-1.1-1.8-0.1-2.8
		C172.1,198.7,175.4,195.2,179.5,190.9z"/>
	<path id="XMLID_177_" class="st52" d="M153,191.6c0.6,0.3,1,0.5,1.2,0.7c11.8,11.7,11.8,11.7-1.2,23.4
		C153,207.5,153,199.7,153,191.6z"/>
	<path id="XMLID_176_" class="st58" d="M178,189.8c-3.5,3.7-6.7,7-9.7,10.3c-1.4,1.6-2.4,2-4,0.2c-3-3.4-6.1-6.6-9.8-10.5
		C162.5,189.8,169.8,189.8,178,189.8z"/>
	<path id="XMLID_174_" class="st10" d="M165.1,152.9c-4.9,0-9.9,0-14.8,0c-1,0-2.5,0.4-2.7-1.2c-0.2-1.9,1.3-2,2.7-2
		c10.3,0,20.5,0,30.8,0c1.2,0,2.4,0.1,2.4,1.7c0,1.7-1.3,1.5-2.4,1.5C175.8,152.9,170.4,152.9,165.1,152.9
		C165.1,152.9,165.1,152.9,165.1,152.9z"/>
	<path id="XMLID_173_" class="st62" d="M179.3,289.1c1.4,13,1.4,13-10.4,12.4C170.6,297.6,175.3,292,179.3,289.1z"/>
	<path id="XMLID_172_" class="st27" d="M164.7,301.4c-12.6,0.8-12.6,0.8-11.8-13.7C157,292.4,160.6,296.5,164.7,301.4z"/>
	<path id="XMLID_170_" class="st63" d="M451.6,96.5c-0.8,0.1-1.5,0.1-2.3,0.2c-2.3-4.2-6.4-6.9-9.7-11c7.2,0,14,0,21.1,0
		C458.2,90,453.4,92,451.6,96.5z"/>
	<path id="XMLID_169_" class="st52" d="M424.1,96.5c-0.7,0-1.4,0-2.1,0.1c-3.3-3.5-6.6-7.1-10.4-11.1c7.5,0,14.4,0,21.7,0
		C430.7,90,425.9,92,424.1,96.5z"/>
	<path id="XMLID_168_" class="st64" d="M280,96.9c-6.7,0-13.5,0-20.8,0c2.6-4.3,6.4-7,9.5-10.3c1.4-1.5,2.3,0.1,3.2,0.9
		c2.9,2.7,5.8,5.4,8.7,8.1C280.4,96,280.2,96.5,280,96.9z"/>
	<path id="XMLID_167_" class="st10" d="M369.2,95.6c-0.8,0.4-1.5,0.7-2.3,1.1c-3.4-3.5-6.7-7-10.6-11.1c7.5,0,14.4,0,22,0
		C375.1,89.1,372.2,92.3,369.2,95.6z"/>
	<path id="XMLID_166_" class="st65" d="M340.4,96.2c-0.2,0-0.5,0.1-0.7,0.2c-3.7-3.2-7.3-6.4-11-9.6c0.4-0.5,0.7-0.9,1.1-1.4
		c6.6,0,13.1,0,20.1,0C347.5,89.9,343.1,92.3,340.4,96.2z"/>
	<path id="XMLID_165_" class="st64" d="M226.9,96.8c-8.3,0-15.1,0-23.6,0c4.1-3.9,7.2-6.8,10.3-9.8c1.2-1.2,2-1.3,3.2-0.1
		C219.8,90,222.9,93,226.9,96.8z"/>
	<path id="XMLID_164_" class="st65" d="M229.1,96.5l-0.4,0c-3.7-3.1-7.4-6.2-11.1-9.4c0.5-0.5,0.9-1.1,1.4-1.6c6.6,0,13.3,0,19.9,0
		c0.5,0.5,0.9,1.1,1.4,1.6C236.5,90.2,232.8,93.3,229.1,96.5z"/>
	<path id="XMLID_163_" class="st66" d="M231.4,97.2c0.9-1.3,1.1-1.7,1.3-1.9c10.3-11,10.3-11,20.8,1.9c-4.1,0-7.6,0-11.1,0
		C239.1,97.2,235.7,97.2,231.4,97.2z"/>
	<path id="XMLID_162_" class="st63" d="M256.8,96.2c-0.2,0-0.5,0.1-0.7,0.2c-3.6-3.3-7.2-6.6-11.9-10.9c8.6,0,15.3,0,22.6,0
		C263.2,89.4,260,92.8,256.8,96.2z"/>
	<path id="XMLID_161_" class="st52" d="M395.2,96.5c-0.3,0-0.5,0-0.8,0c-3.7-3.2-7.3-6.5-11-9.7c0.3-0.4,0.6-0.9,1-1.3
		c6.8,0,13.6,0,21,0C401.8,89.5,398.5,93,395.2,96.5z"/>
	<path id="XMLID_160_" class="st67" d="M284.3,96.6l-0.5,0l-0.5,0c-3.3-3.5-6.7-7-10.5-11c7.4,0,14.3,0,22,0
		C291.1,89.5,287.7,93.1,284.3,96.6z"/>
	<path id="XMLID_159_" class="st10" d="M314.3,95.6c-1.2,1.2-2.5,1.3-3.7,0c-2.9-3.2-5.9-6.3-9.2-10c7.5,0,14.4,0,22,0
		C320.2,89.1,317.2,92.3,314.3,95.6z"/>
	<path id="XMLID_158_" class="st66" d="M397.8,96.8c0.6-0.9,0.8-1.3,1-1.5c10.3-11,10.3-11,20.4,1.5
		C412.1,96.8,405.2,96.8,397.8,96.8z"/>
	<path id="XMLID_157_" class="st66" d="M479.7,96.7c0-0.5,0-0.7,0-0.8c10.2-11.6,10.2-11.6,21,0.8C493.5,96.7,486.7,96.7,479.7,96.7
		z"/>
	<path id="XMLID_156_" class="st68" d="M364.1,97.6l-0.5,0.1c-6.8,0-13.6,0-21.4,0c3-4.9,6.8-7.5,9.7-10.8c1-1.1,2-0.8,2.9,0.2
		C357.9,90.7,362.3,93,364.1,97.6z"/>
	<path id="XMLID_155_" class="st64" d="M391.6,97.6c-0.5,0-1.1,0-1.6,0.1c-6.1,0-12.3,0-18.4,0c-0.3-0.7-0.6-1.3-0.9-2
		c3-2.7,6-5.4,8.9-8.2c0.9-0.9,1.8-1.5,2.8-0.3C385.4,90.7,389.8,93,391.6,97.6z"/>
	<path id="XMLID_154_" class="st69" d="M476.7,95.7c-0.3-0.2-0.7-0.3-1.1-0.4c-2.8-3-5.6-6.1-8.8-9.6c6.7,0,13,0,20.3,0
		C483.4,89.3,480.1,92.5,476.7,95.7z"/>
	<path id="XMLID_153_" class="st70" d="M310,96.8c-8.7,0-15.4,0-24,0c4.2-4,7.4-6.9,10.4-9.9c1.3-1.3,2.3-0.8,3.3,0.3
		C302.8,90,305.8,92.8,310,96.8z"/>
	<path id="XMLID_152_" class="st68" d="M316.3,96.7c0.3-0.8,0.3-1,0.4-1.1c12.2-11.7,6.9-12.7,20.2,1.1
		C329.9,96.7,323.3,96.7,316.3,96.7z"/>
	<path id="XMLID_151_" class="st70" d="M426.6,97.2c0-1.1-0.1-1.3,0-1.4c9.5-11.4,10.5-11.3,20.7,1.4c-4,0-7.2,0-10.5,0
		C433.6,97.2,430.2,97.2,426.6,97.2z"/>
	<path id="XMLID_150_" class="st71" d="M475.5,96.9c-8.1,0-14.6,0-21.6,0c2.3-4.2,6.1-6.7,9-10c1.1-1.2,2-0.3,2.8,0.5
		C468.6,90.3,471.6,93.1,475.5,96.9z"/>
	<path id="XMLID_149_" class="st72" d="M170.2,28c-1,0.7-2.3,3.6-2.6-0.3c-0.2-3.3,0-6.6,0-10C170,20.8,169.8,24.5,170.2,28z"/>
	<path id="XMLID_148_" class="st73" d="M199.4,109c-2.3,8.4-4.7,16.9-6.8,25.4c-0.9,3.5-2.4,4.9-6.2,4.8
		c-10.1-0.3-20.2-0.1-30.3-0.1c-1.8,0-3.8-0.6-6.6,1.6c13.7,1.4,26.4,0.1,39.4,0.9c-1.6,4.1-4.1,5.8-8.3,5.7
		c-10.9-0.2-21.7-0.1-32.6-0.2l0,0c-1.1-14.3-0.4-28.5-0.3-42.8c0-0.2,0.6-0.4,0.9-0.6c14.2,0.1,28.4,0.2,42.6,0.2
		C195.1,103.9,198.6,104.3,199.4,109z"/>
	<path id="XMLID_147_" class="st74" d="M25.8,100.9c0.7-3.3,3.4-1.9,5.1-1.9c93.3-0.1,186.5-0.1,279.8-0.1c67.9,0,135.8,0,203.7,0
		c2.3,0,4.6,0.1,6.9,0.1c0.4,3.3-2.1,2.5-3.8,2.5c-25.7,0-51.5,0-77.2,0c-6.7,0-13.3,0.1-20,0.1c-129.1,0-258.1,0-387.2,0
		C30.7,101.6,28.2,102,25.8,100.9z"/>
	<path id="XMLID_146_" class="st75" d="M439,111.5c0.3,2.4-0.1,5.9-4.8,5.8c-5.4-0.1-4.4-4.4-4.5-7.9c-0.1-3.4-0.2-5.9,4.8-5.9
		C440.4,103.4,438.6,107.1,439,111.5z"/>
	<path id="XMLID_145_" class="st8" d="M148.7,103.7c-1.4,14.4-0.3,28.9-0.6,43.4c-1.2-0.9-1.1-2.3-1.1-3.6c0-11.8,0-23.6,0-35.4
		C147,106.4,146.4,104.5,148.7,103.7z"/>
	<path id="XMLID_144_" class="st76" d="M73.6,103.7c0,2.6,0.1,5.2,0,7.8c0,1.3-0.6,2.1-2,2.1c-1.6,0.1-2.5-0.4-2.5-2.1
		c0-2.6,0-5.2,0.1-7.8C70.6,103.7,72.1,103.7,73.6,103.7z"/>
	<path id="XMLID_143_" class="st77" d="M66.8,103.4c1.8,2.4,0.6,5.1,0.9,7.7c0.1,1.5-0.5,2.6-2.2,2.6c-2.1,0.1-2.6-1.3-2.5-2.9
		c0.1-2.5,0.2-4.9,0.4-7.4C64.5,103.4,65.7,103.4,66.8,103.4z"/>
	<path id="XMLID_142_" class="st78" d="M54.2,103.5c0.1,2.4,0.3,4.8,0.4,7.2c0.1,1.7-0.5,2.8-2.5,2.9c-2,0.1-2.6-1-2.6-2.8
		c0.1-2.4,0.1-4.9,0.1-7.3C51.2,103.6,52.7,103.6,54.2,103.5z"/>
	<path id="XMLID_141_" class="st78" d="M61,103.6c0,2.6,0.1,5.2,0.1,7.9c0,1.7-1,2.2-2.6,2.1c-1.4,0-2-0.8-2-2.1
		c0-2.6,0-5.3,0.1-7.9C58.1,103.7,59.5,103.6,61,103.6z"/>
	<path id="XMLID_140_" class="st79" d="M79.3,103.7c0,2.6,0.1,5.2,0.1,7.8c0,1-0.2,1.9-1.4,2.1c-1,0.1-2.3,0.1-2.4-0.9
		c-0.2-3.2-2.5-6.9,1.5-9.4C77.8,103.4,78.6,103.6,79.3,103.7z"/>
	<path id="XMLID_139_" class="st80" d="M436.9,154.2c0,2.2,0.2,4.2-2.7,4c-3-0.2-2.1-2.5-2.2-4.2c-0.1-1.7-0.2-3.4,2.4-3.4
		C437.4,150.5,436.8,152.7,436.9,154.2z"/>
	<path id="XMLID_137_" class="st81" d="M49.5,96.6c0-6.8,0-13.7,0-20.5c8.9-1.1,17.8-0.2,26.7-0.5c2.6-0.1,3.1,1.3,3.1,3.6
		c-0.1,4.9-0.1,9.9,0,14.8c0,1.9-0.3,3.5-2.7,3.4C67.6,97,58.5,98.3,49.5,96.6z"/>
	<path id="XMLID_136_" class="st69" d="M159.4,45.1c4.1-1.4,5.6,2.8,5.8,4.4c0.9,9.6,2.6,19.4-1.1,28.8c-3.3,6-6.4,12.3-13.6,14.8
		c0-0.6,0.1-1.2,0.1-1.8c0.6-9.9,3.1-19.4,4.9-29C156.6,56.5,156.7,50.5,159.4,45.1z"/>
	<path id="XMLID_135_" class="st82" d="M183.4,94.6c-0.1,3.3-2.7,1.9-4.2,2c-11.6,0.3-11.7,0.3-11.5-11.2c0-3.5-1-7.2,1-10.5
		c0.9-3.7,3.2-6.4,6.2-8.5c2-1.4,3.6-1.1,4,1.6C180.4,76.9,182.9,85.6,183.4,94.6z"/>
	<path id="XMLID_134_" class="st83" d="M183.4,94.6c-2-9.5-4-19-6.2-29.1c-3.1,3.4-5.8,6.4-8.5,9.4c-0.4-0.8-0.7-1.6-1.1-2.4
		c5-5.7,9-11.5,1-18c-0.4-0.3-0.2-1,0.3-1.4c0.3-0.4,0.6-0.7,0.9-1.1c0.8-0.3,1.5-0.1,2.1,0.3c0.6,0.3,1.1,0.8,1.9,1.4
		c-1.4-6-2.1-11.6-3.2-17.2c-0.4-2-1.1-4.1,0.1-6.1c0.5-0.5,1-1,1.5-1.5c3.9,15.1,6,30.6,9,45.8c1.2,6.1,2.2,12.3,3.2,18.5
		C184.2,93.7,183.8,94.2,183.4,94.6z"/>
	<path id="XMLID_133_" class="st84" d="M170.8,30.4c1.7,8.7,3.4,17.5,5.2,26.7c-3.2-0.9-3.7-4.1-6.1-5.1
		C166.2,46.4,166.7,34.4,170.8,30.4z"/>
	<path id="XMLID_132_" class="st85" d="M165.3,96.7c-4.6-0.7-9.4,1.6-13.8-1.2c2.9-5.2,7.1-9.4,11-13.8c0.7-0.7,1.4-1.4,2.4-1.1
		c1.1,0.4,1,1.5,0.9,2.5C165.6,87.6,166.5,92.2,165.3,96.7z"/>
	<path id="XMLID_131_" class="st86" d="M169,53.1c0.3,0.5,0.5,1,0.9,1.4c7.8,9.6,7.8,9.5-2.2,18c0.2-6.5-0.6-13.1,0.4-19.6
		c0-0.1,0.3-0.1,0.4-0.1C168.6,52.9,168.8,53,169,53.1z"/>
	<path id="XMLID_130_" class="st87" d="M27.6,91c-3.9-8.4,3.3-14.7,9.5-13.6c6.8,1.3,9.3,8.2,4.9,14.5c-1.5-3.4,0.8-7.2-1.5-10.2
		c-3.3-0.9-7.2-1.3-10-0.1c-3.4,1.5-0.7,5.7-1.5,8.6c-0.1,0.3-0.2,0.7-0.5,0.9C28.3,91.4,27.9,91.1,27.6,91z"/>
	<path id="XMLID_129_" class="st88" d="M159.4,45.1c-2.5,15.5-5.1,30.9-8.8,46.1c-0.4-0.4-0.8-0.9-1.2-1.3c2.6-15.4,5.1-30.8,8.8-46
		C158.7,44.3,159,44.7,159.4,45.1z"/>
	<path id="XMLID_128_" class="st89" d="M33.6,83c-0.7,1.9-2.2,3.7-0.3,5.7c2,2.2,3.8,0.3,6.1-0.6c0,3,0,5.8,0,8.6
		c-2.9,0-7.3,1.7-8.4-1c-1.4-3.4-0.5-7.8-0.3-11.8C30.8,82.6,32.5,83.1,33.6,83z"/>
	<path id="XMLID_127_" class="st90" d="M103.4,90.8c3.1,0,6.2,0,9.2,0c1.2,2.1,1.7,4.9-0.2,6.1c-2.5,1.5-6.1,1.4-8.6,0.1
		C101.8,95.9,102.5,93,103.4,90.8z"/>
	<path id="XMLID_126_" class="st70" d="M101.1,91.1c0.5,3.8,0.6,6.6-5.1,6.6c-5.6,0-5.6-2.7-5.1-6.5C94.3,88.7,97.7,88.6,101.1,91.1
		z"/>
	<path id="XMLID_125_" class="st71" d="M120.2,90.8c1.9,0.6,5-1.5,5.1,3c0.1,4.5-2.7,3.7-5.2,3.6c-2.3-0.1-5.4,1.4-5.4-3.3
		C114.8,89.1,118.2,91.4,120.2,90.8z"/>
	<path id="XMLID_124_" class="st88" d="M165.3,96.7c0.9-5.2,0.5-10.5,0.2-17c-5.2,5.8-9.6,10.8-14,15.8c-0.3-0.8-0.7-1.6-1-2.4
		c5.5-4,8.5-10.4,13.6-14.8c0.8,0.4,2.2,0.8,2.2,1.1C166.2,85.2,168.1,91.1,165.3,96.7z"/>
	<path id="XMLID_123_" class="st10" d="M127.5,90.9c3.1,0,6.1,0,9.2-0.1c-0.6,2.5,1.9,6.2-3,7C127.4,98.8,126.6,97.9,127.5,90.9z"/>
	<path id="XMLID_122_" class="st91" d="M163.1,36.2c-2.9-2.6-0.3-5.3-0.1-8c0.1-2.4,0.7-4.8,1-7.2c0.4-1-0.1-2.4,2.2-3.2
		C165.2,24.3,168.4,30.8,163.1,36.2z"/>
	<path id="XMLID_121_" class="st92" d="M166.2,46c-6.5-4.6-6.5-4.6-0.5-9.9C166.7,39.5,166,42.6,166.2,46z"/>
	<path id="XMLID_120_" class="st14" d="M115,85.4c3.4,0,6.8,0,10.2,0c0.9,4.5-2.3,3.7-4.8,3.6C118,88.8,114.2,90.5,115,85.4z"/>
	<path id="XMLID_119_" class="st6" d="M88.5,88.6c-0.4,1.2-0.7,2.5-1.1,3.7c0.5,2.8-2,3.8-3.3,5.5c-0.9-0.4-1.8-0.9-2.7-1.3
		c-0.4-1.7,3.2-3.9-0.7-5.2c0-1,0-2,0-3C83.4,86.6,86,86.8,88.5,88.6z"/>
	<path id="XMLID_118_" class="st93" d="M92.5,87.6c2.4-2.6,5.4-2.7,8.6-2.3c0,1.1,0,2.2,0,3.3c-3,1.7-6,1.9-8.9,0
		C92.2,88.3,92.4,87.9,92.5,87.6z"/>
	<path id="XMLID_117_" class="st10" d="M88.5,88.6c-2.6,0.3-5.2,0.5-7.7-0.3c0-0.9,0-1.8,0-2.7c2.6-0.1,5.1-0.2,7.7-0.3
		C88.5,86.4,88.5,87.5,88.5,88.6z"/>
	<path id="XMLID_116_" class="st94" d="M84.1,97.7c-0.5-2.8,2.7-3.4,3.3-5.5c2-0.9,2.2,0.3,2.1,1.9c-0.1,1.5,0.1,3.2-2,3.5
		C86.4,97.7,85.3,97.7,84.1,97.7z"/>
	<path id="XMLID_115_" class="st6" d="M92.2,88.6c3,0,6,0,8.9,0c0,0.8,0,1.6,0,2.4c-3.4,0-6.8,0-10.2,0C90.9,90,91,89,92.2,88.6z"/>
	<path id="XMLID_114_" class="st95" d="M80.8,91.3c1.6-0.2,3.3-0.3,5.2-0.5c-0.6,2.9-3.2,3.8-4.5,5.7C80.2,94.8,81,93,80.8,91.3z"/>
	<path id="XMLID_105_" class="st10" d="M103.4,85.2c2.5,0,4.9,0,7.4,0.1c1.3,0,2.2,0.4,2.1,1.9c-0.1,1.2-1.1,2-1.8,1.5
		C108.6,87.4,103.2,92.4,103.4,85.2L103.4,85.2z"/>
	<path id="XMLID_104_" class="st10" d="M127.5,85.2c2.5,0,4.9,0,7.4,0.1c1.3,0,2.2,0.4,2.1,1.9c-0.1,1.2-1,2-1.8,1.5
		C132.7,87.4,127.2,92.4,127.5,85.2L127.5,85.2z"/>
	<path id="XMLID_93_" class="st96" d="M913.1,350.5c0.5,0.8,0.2,1.3-0.7,1.6c-7,2.4-10.1,8-11.6,14.7c-0.3,1.2,0,2.7-1.2,3.6
		C898.6,359.3,902.9,352.9,913.1,350.5z"/>
	<path id="XMLID_77_" class="st97" d="M310.5,365.4c-0.4,4,3.1,3.4,5.1,3.7c3.3,0.5,6.7,0.2,10.1,0.3c0,0.2,0,0.5,0,0.7
		c-4.5,0-9,0.2-13.4,0c-4.3-0.2-5.7-3.8-3.1-7.9C310.3,363,311.2,363.9,310.5,365.4z"/>
	<path id="XMLID_59_" class="st98" d="M408.3,398.9c-5.5-4.8-5.9-10.6-1.5-18.7C406.6,386.4,404,392.9,408.3,398.9z"/>
	<path id="XMLID_58_" class="st18" d="M310.5,365.4c-0.5-1.1-0.9-2.1-1.4-3.2c3.5,0,7.4,0,7.9-4.3c0.4-3.3-0.5-7.4-5-7.7
		c-4.1-0.3-5.8,3-7.1,6.3c-0.3,0.8-0.8,1.6-1.4,2.7c-1.1-7.5,5-17.5,11.9-19.8c8.8-0.7,14.7,3.9,19.3,10.8
		c3.9,8.9,0.9,14.8-8.2,16.8C321,368.2,315.6,368.4,310.5,365.4z"/>
	<path id="XMLID_57_" class="st68" d="M314.1,358.1c-1.8,3.9-6.1-0.2-7.8,3.1c-0.1,0.1-1.5-0.7-1-1.5c1.3-1.8,1.1-5.2,3.6-5.2
		C310.6,354.6,312.4,356.9,314.1,358.1z"/>
	<path id="XMLID_56_" class="st99" d="M334.7,350.2c-5.6-5.1-10.9-10.7-19.3-10.8C322.8,337.3,332.4,342.6,334.7,350.2z"/>
	<path id="XMLID_55_" class="st100" d="M299.2,360.8c-0.6-7.1-0.1-9.6,2.8-15C301.8,357.4,301.6,358.5,299.2,360.8z"/>
	<path id="XMLID_54_" class="st101" d="M315.4,356.7c-2.3-1.5-4-2.4-5-4.1C313.6,352.6,313.6,352.6,315.4,356.7z"/>
	<path id="XMLID_53_" class="st30" d="M367.9,400c0-0.2,0.1-0.5,0.1-0.7c-1.2-4.4-4.8-7.2-7.4-10.5c-1.9-2.4-2-4,0.1-6.2
		c3.1-3.3,5.8-7,9.5-11.6c0,10.1,0,19,0,28C370.2,400,368.7,399.7,367.9,400z"/>
	<path id="XMLID_52_" class="st102" d="M344.9,369c8.5,0,15.9,0,24.3,0c-4.3,5.3-8.1,10-12.2,15.1
		C353.1,379.2,349.3,374.5,344.9,369z"/>
	<path id="XMLID_51_" class="st30" d="M575.9,402.1c-8.5,0-15.8,0-24.2,0c3.9-4.8,7.4-9,10.7-13.2c1.2-1.6,2.1-1.1,3.1,0.2
		C568.8,393.2,572.1,397.3,575.9,402.1z"/>
	<path id="XMLID_50_" class="st23" d="M553.7,371.6c-0.4-0.4-0.9-0.8-1.3-1.1c0.1-1.5,1.3-1.7,2.5-1.7c6.7,0,13.3,0,21.5,0
		c-4.3,5.3-7.7,9.6-11.3,13.9c-1.6,1.9-2.3-0.1-3-0.9C559.2,378.4,556.4,375,553.7,371.6z"/>
	<path id="XMLID_46_" class="st103" d="M171.9,121.6c0-13.7,0-13.7,13.5-13.7c1.3,0,2.7,0,4,0c3.8-0.1,5.3,1.8,4.3,5.4
		c-1.5,5.5-2.9,11-4.7,16.4c-1.7,5.1-11.7,8.6-16,5.8c-1.2-0.7-1-2-1-3.1C171.9,128.8,171.9,125.2,171.9,121.6z"/>
	<path id="XMLID_45_" class="st104" d="M162.5,135.8c-1.9-0.5-5.1,1-5.3-2.4c-0.2-3.8,3-3.1,5.3-3.2c2.2,0,5.1-0.5,5.1,2.8
		C167.7,136.6,164.6,135.5,162.5,135.8z"/>
	<path id="XMLID_32_" class="st82" d="M686.9,367c1.7,0.3,2.8,1.2,2.6,3c-0.1,1.5-1.2,2.4-2.7,2.4c-1.8-0.1-2.8-1.1-2.6-3
		C684.4,368,685.4,367.2,686.9,367z"/>
	<path id="XMLID_26_" class="st27" d="M173.5,121.8c0-12.3,0-12.3,12.4-12.3c6.9,0,6.9,0,5,6.9c-1.3,4.4-2.3,8.8-3.8,13.1
		c-1.4,4-9.3,6.6-12.6,4.5c-1.2-0.8-1-2-1-3.1C173.4,127.8,173.5,124.8,173.5,121.8z"/>
	<path id="XMLID_25_" class="st105" d="M158.9,133.3c2.3-1.7,4.6-1.2,7.6-0.9C163.7,135.4,161.3,134,158.9,133.3z"/>
	<polyline id="XMLID_11_" class="st1" points="796.8,403.5 796.9,403.5 802.8,403.5 802.8,403.5 	"/>
	<polyline id="XMLID_5_" class="st1" points="823.8,403.5 824,403.5 827.8,403.5 	"/>
	<line id="XMLID_6_" class="st1" x1="774.8" y1="403.5" x2="774.8" y2="403.5"/>
	<line id="XMLID_31_" class="st1" x1="150.8" y1="302.5" x2="150.8" y2="302.5"/>
	<line id="XMLID_15_" class="st1" x1="150.8" y1="302.5" x2="150.8" y2="302.5"/>
	<line id="XMLID_14_" class="st1" x1="181.7" y1="301" x2="181.6" y2="298.2"/>
	<path id="XMLID_4_" class="st51" d="M180.3,332.3c-3.9-4.5-7-8.3-10.3-11.9c-1.3-1.4-1.3-2.4,0-3.8c3.3-3.6,6.4-7.4,10.3-12
		C180.3,314.2,180.3,322.6,180.3,332.3z"/>
	<path id="XMLID_3_" class="st54" d="M179.5,334.5h-24.3c3.9-5,7.3-8.9,10.8-12.9c1.8-2,2.6,0.1,3.5,1.1
		C172.6,326.3,175.7,329.5,179.5,334.5z"/>
	<path id="XMLID_2_" class="st56" d="M155,302.8c8.7,0,16,0,24.6,0c-4,4.6-7.4,8.5-10.7,12.4c-1.5,1.8-2.4,1-3.6-0.3
		C162.2,311.2,159,307.5,155,302.8z"/>
	<path id="XMLID_1_" class="st30" d="M154,304.4c1,1.2,1.4,1.6,1.8,2c11.4,12.9,11.4,12.9-1.8,25.6C154,322.9,154,314.2,154,304.4z"
		/>
	<path id="XMLID_10_" class="st51" d="M180.3,367.3c-3.9-4.5-7-8.3-10.3-11.9c-1.3-1.4-1.3-2.4,0-3.8c3.3-3.6,6.4-7.4,10.3-12
		C180.3,349.2,180.3,357.6,180.3,367.3z"/>
	<path id="XMLID_9_" class="st54" d="M179.5,369.5h-24.3c3.9-5,7.3-8.9,10.8-12.9c1.8-2,2.6,0.1,3.5,1.1
		C172.6,361.3,175.7,364.5,179.5,369.5z"/>
	<path id="XMLID_8_" class="st56" d="M155,337.8c8.7,0,16,0,24.6,0c-4,4.6-7.4,8.5-10.7,12.4c-1.5,1.8-2.4,1-3.6-0.3
		C162.2,346.2,159,342.5,155,337.8z"/>
	<path id="XMLID_7_" class="st30" d="M154,339.4c1,1.2,1.4,1.6,1.8,2c11.4,12.9,11.4,12.9-1.8,25.6C154,357.9,154,349.2,154,339.4z"
		/>
	<path id="XMLID_18_" class="st51" d="M181.3,401.3c-3.9-4.5-7-8.3-10.3-11.9c-1.3-1.4-1.3-2.4,0-3.8c3.3-3.6,6.4-7.4,10.3-12
		C181.3,383.2,181.3,391.6,181.3,401.3z"/>
	<path id="XMLID_17_" class="st54" d="M180.5,403.5h-24.3c3.9-5,7.3-8.9,10.8-12.9c1.8-2,2.6,0.1,3.5,1.1
		C173.6,395.3,176.7,398.5,180.5,403.5z"/>
	<path id="XMLID_16_" class="st56" d="M156,371.8c8.7,0,16,0,24.6,0c-4,4.6-7.4,8.5-10.7,12.4c-1.5,1.8-2.4,1-3.6-0.3
		C163.2,380.2,160,376.5,156,371.8z"/>
	<path id="XMLID_12_" class="st30" d="M155,373.4c1,1.2,1.4,1.6,1.8,2c11.4,12.9,11.4,12.9-1.8,25.6C155,391.9,155,383.2,155,373.4z
		"/>
	<path id="XMLID_728_" class="st106" d="M439.9,171.4c0.2,0.4,0.6,0.8,0.5,1c-0.7,1.6-1.3,2.9-1.7,4.1H436c-0.2-0.5-0.6-1-1.1-1.4
		c-1.5-1.2-2.6-3.2-1.5-4.4c4.8-5.1,0.2-5.3-3.5-6.2c4.8-1.3,9.1-1.2,14-0.4c-2.3,2.1-6.9,0.5-6.7,5.1c0,0.7-3.2,1.4-1.9,3.1
		C436.8,174.2,438.5,172.5,439.9,171.4z"/>
	<line id="XMLID_27_" class="st1" x1="796.7" y1="403.5" x2="796.2" y2="403.5"/>
</g>
</svg>
