<?xml version="1.0" encoding="utf-8"?>
<!-- Generator: Adobe Illustrator 19.0.0, SVG Export Plug-In . SVG Version: 6.00 Build 0)  -->
<svg version="1.1" id="Layer_1" xmlns="http://www.w3.org/2000/svg" xmlns:xlink="http://www.w3.org/1999/xlink" x="0px" y="0px"
	 viewBox="0 0 499.1 169.8" style="enable-background:new 0 0 499.1 169.8;" xml:space="preserve">
<style type="text/css">
	.st0{fill:#E5959D;}
</style>
<path id="XMLID_269_" class="st0" d="M499.1,122.5v47.3H97.6L0,169l0.7-86.2l5.1,0c0.1-7.3,6-13.1,13.3-13c7.3,0.1,13.1,6,13,13.3
	l5.1,0L37,113.8l12.4,0.1l0.1-17.5L70,96.6l0.3-33.8h-8.5v-4.4h43.8v4.4h-6.8l-0.4,45.3h31.3V17.5h10.2V0H153v17.5h13.1V0h11v17.5
	h12.4v57.7h48.9v30.7h27V48.9h1.8c0-8.1,6.5-14.6,14.6-14.6c8.1,0,14.6,6.5,14.6,14.6h1.8v21.9h2.9V45.6h6.2v25.2h4.7V45.3h6.2v25.6
	h5.1V45.6h6.2v25.2h7.3v35h16.1V17.5h-1.8V8.8h56.6v8.8h-1.5v47.1h6.6V51.1h12.8V37.2h3.3v13.9h8.8v13.6h7.3v34.6h16.1v23.2H499.1z"
	/>
</svg>
