<?xml version="1.0" encoding="utf-8"?>
<!-- Generator: Adobe Illustrator 19.0.0, SVG Export Plug-In . SVG Version: 6.00 Build 0)  -->
<svg version="1.1" id="Layer_1" xmlns="http://www.w3.org/2000/svg" xmlns:xlink="http://www.w3.org/1999/xlink" x="0px" y="0px"
	 viewBox="0 0 61.9 42.4" style="enable-background:new 0 0 61.9 42.4;" xml:space="preserve">
<style type="text/css">
	.st0{fill:#274E69;}
	.st1{fill:#254D68;}
	.st2{fill:#3B5F77;}
</style>
<g id="XMLID_348_">
	<path id="XMLID_322_" class="st0" d="M44.3,36.1c-2.6,2.1-7.2,1-7.3,5.4c-1.7-0.6-4.3,3.1-5.4-1.3C31,38,28.3,38,26.3,37.4
		c-1.5-0.4-3.5,0.3-4.8-2c4.5-0.9,7.9,0.9,11.5,2.5C36.7,39.6,39.5,33.7,44.3,36.1z"/>
	<path id="XMLID_321_" class="st1" d="M47.1,0c4,5.1,9.9,2.8,14.8,4.5c-3.2,0.6-6.3,2.1-9.1,2c-2.2-0.1-4.4-3.2-6.6-5
		C46.6,1,46.8,0.5,47.1,0z"/>
	<path id="XMLID_319_" class="st2" d="M12.6,0.3C7.9,3.7,4.3,5.3,0,1.9C3.9,2.3,7.4,0.5,12.6,0.3z"/>
</g>
</svg>
