<?xml version="1.0" encoding="utf-8"?>
<!-- Generator: Adobe Illustrator 19.0.0, SVG Export Plug-In . SVG Version: 6.00 Build 0)  -->
<svg version="1.1" id="Layer_1" xmlns="http://www.w3.org/2000/svg" xmlns:xlink="http://www.w3.org/1999/xlink" x="0px" y="0px"
	 viewBox="0 0 54.1 39.4" style="enable-background:new 0 0 54.1 39.4;" xml:space="preserve">
<style type="text/css">
	.st0{fill:#E0BABA;}
</style>
<path id="XMLID_263_" class="st0" d="M54.1,28.3c0,5.3-4.1,10-9.3,10.5c-0.4,0.1-0.8,0.5-1.2,0.5H12.4c-0.9,0-1.8,0.1-2.8,0.1
	c-5.3,0-9.6-4.5-9.6-9.8c0-5.2,4.1-9.5,9.2-9.7c-0.3-1.3-0.5-2.7-0.5-4.1C8.7,7.1,15.8,0,24.5,0s15.8,7.1,15.8,15.8c0,1-0.1,2-0.3,3
	c1.2-0.5,2.5-0.8,3.9-0.8C49.6,18,54.1,22.6,54.1,28.3z"/>
</svg>
