<?xml version="1.0" encoding="utf-8"?>
<!-- Generator: Adobe Illustrator 19.0.0, SVG Export Plug-In . SVG Version: 6.00 Build 0)  -->
<svg version="1.1" id="Layer_1" xmlns="http://www.w3.org/2000/svg" xmlns:xlink="http://www.w3.org/1999/xlink" x="0px" y="0px"
	 viewBox="0 0 112.8 129.2" style="enable-background:new 0 0 112.8 129.2;" xml:space="preserve">
<style type="text/css">
	.st0{opacity:0.48;fill:#DD3737;}
</style>
<path id="XMLID_100_" class="st0" d="M56.6,129.2c-12.5-7.2-24.8-14.3-37.2-21.4c-5.8-3.4-11.6-6.8-17.5-10.1
	C0.5,96.9,0,96.2,0,94.6c0.1-20.2,0-40.3,0.1-60.5c0-1,0.9-2.5,1.8-3.1C19.4,20.8,37,10.8,54.4,0.6c1.6-0.9,2.7-0.8,4.2,0.1
	c17.3,10,34.7,20.1,52.1,30c1.5,0.9,2.1,1.8,2.1,3.6c-0.1,20,0,40,0,59.9c0,1.1-0.6,2.8-1.4,3.3C93.2,108.2,74.9,118.7,56.6,129.2z
	 M63.7,52.7c0.1-0.2,0.2-0.4,0.3-0.6c-4.6-1.9-9.1-4.2-13.8-5.5c-5.1-1.4-10.1-0.4-13.8,3.8c-3.7,4.3-3.9,9.4-1.7,14.1
	c2.1,4.6,4.8,9,7.8,13c9.7,12.6,17.1,25.9,14.4,42.9C80.8,86.4,80.9,41.9,57.6,8.9c1.7,5.7,3.1,10.7,4.6,15.6
	C66.4,38,69.1,51.8,68.3,66c-0.3,5-2.2,9.4-7.2,11.7c-4.6,2.1-9.1,1.9-13.1-1.3c-5.2-4.1-8-9.5-8-16.3c0.1-7.3,3.6-10.8,10.8-10.2
	C55.2,50.4,59.4,51.8,63.7,52.7z M64.9,64.3c0-5.5-4.2-9.9-9.6-9.9c-5.5-0.1-10,4.3-10.1,9.8c-0.1,5.3,4.6,9.9,10,9.9
	C60.6,74,64.8,69.7,64.9,64.3z"/>
</svg>
