<?xml version="1.0" encoding="utf-8"?>
<!-- Generator: Adobe Illustrator 19.0.0, SVG Export Plug-In . SVG Version: 6.00 Build 0)  -->
<svg version="1.1" id="Layer_1" xmlns="http://www.w3.org/2000/svg" xmlns:xlink="http://www.w3.org/1999/xlink" x="0px" y="0px"
	 viewBox="0 0 105.9 119.3" style="enable-background:new 0 0 105.9 119.3;" xml:space="preserve">
<style type="text/css">
	.st0{fill:#3F5E76;}
	.st1{fill:#02304F;}
	.st2{fill:#19435F;}
	.st3{fill:#E7ECEE;}
	.st4{fill:#FDFDFD;}
	.st5{fill:#DDDDDD;}
	.st6{fill:#FCEBE7;}
	.st7{fill:#63CAEF;}
	.st8{fill:#EDF0F2;}
	.st9{fill:#D7DEE3;}
	.st10{fill:#395D75;}
	.st11{fill:#E6F2F7;}
	.st12{fill:#002E4E;}
	.st13{fill:#244B67;}
	.st14{fill:#FBFBFC;}
	.st15{fill:none;}
</style>
<path id="XMLID_291_" class="st0" d="M66.4,106.9c0.2,4.7-1,8.7-5.7,12.2L4,119c2.5,0,0.7-0.7,0.3-1.6c0,0-0.1-0.1-0.1-0.2
	c0,0,0,0,0,0l0,0v0.2c-3-2.6-4-6.4-4-10.4c0-29.5,0-58.9,0-88.4c0-1.5-0.1-3-0.1-4.5c0.2-4.6,0.4-9,5-12h0.1v0.1
	c0,0.5,0.1,0.8,0.4,1c-2.4,2.5-3.8,5.2-3.8,8.9c0.1,32.1,0,64.2,0,96.2c0,2.1,0,4.3,1.5,6c0.5,0.7,1,1.4,1.4,2.1c0,0,0,0,0,0.1
	c0,0.1,0.1,0.1,0.1,0.2c0,0,0,0,0,0c0,0,0-0.1-0.1-0.1c-0.1-0.1-0.1-0.1-0.2-0.2c-0.5-0.7-1-1.4-1.4-2.1c0.1-0.3,0.2-0.5,0.3-0.7
	c0.1-0.2,0.1-0.5,0.1-0.7c0-0.1,0-0.2,0-0.3c0,0.1,0.1,0.2,0.1,0.2c0,0,0,0,0,0c0.5,1.2,1.5,2.1,1.2,3.5c0.2,0,0.5,0,0.7,0
	c3.7,1.4,7.6,1.6,11.5,1.6c11.6-0.1,23.1,0,34.7-0.1c8.9,0,12.3-3.3,12.3-12.2c0.1-30.4,0.1-60.7,0-91.1c0-4-0.5-7.8-4.3-10.3
	c-0.6-0.3-1.2-0.5-1.8-0.7c0.8,0.1,1.6,0,2.5-0.5c-2.7-0.8-5.4-1.8-8.3-1.8c-13,0-26,0-39,0c-2.6,0-5.2,0.4-7.6,1.7
	C5.7,2.8,5.5,2.7,5.4,2.6C5.3,2.5,5.2,2.4,5,2.3c2.2-1.9,4.9-2.2,7.6-2.2C26.3,0,40,0,53.7,0c7.5,0,10.9,2.9,12.8,10.2
	c0,28.6-0.1,57.2-0.1,85.8C66.4,99.7,66.3,103.3,66.4,106.9z"/>
<path id="XMLID_279_" class="st0" d="M3.3,114.4c0.1-0.3,0.2-0.5,0.3-0.7C3.5,113.9,3.4,114.1,3.3,114.4
	C3.3,114.4,3.3,114.4,3.3,114.4z"/>
<path id="XMLID_284_" class="st1" d="M60.6,3.1c-0.8,0.5-1.7,0.6-2.5,0.5c-2.3-0.8-4.7-1.1-7.1-1.1c-11.8,0-23.5,0.1-35.3,0
	c-1.5,0-3,0.2-4.5,0.4C9.7,3.1,8.1,3.4,6.6,3.5c-0.2,0-0.5-0.1-0.7-0.1c-0.1,0-0.2-0.1-0.3-0.1c-0.3-0.2-0.4-0.4-0.4-1v0
	c0,0.1,0.2,0.2,0.3,0.3C5.6,2.7,5.7,2.8,5.8,3c2.4-1.2,4.9-1.7,7.5-1.7c13,0,26,0,39,0C55.2,1.3,57.9,2.2,60.6,3.1z"/>
<path id="XMLID_286_" class="st0" d="M5.9,4.1c-1.5,2.1-2.2,4.3-2.6,6.5c-0.1,0.5-0.1,0.9-0.2,1.4c-0.3,2.8,0,5.6,0,8.4v85.8
	c0,2.2,0,4.4,1,6.5v0c0,0.1-0.2,0.2-0.2,0.3c0,0.2-0.2,0.5-0.2,0.7c-0.1,0.3-0.2,0.5-0.3,0.7c0,0,0,0,0,0c-1.5-1.7-1.6-3.8-1.6-6
	c0-32.1,0-64.2-0.1-96.2c0-3.7,1.4-6.5,3.8-8.9C5.2,3.1,5,2.8,5,2.3c0.1,0.1,0.3,0.2,0.4,0.3C5.5,2.7,5.7,2.8,5.8,3
	c0,0.1,0,0.3,0.1,0.4C5.9,3.6,6,3.9,5.9,4.1z"/>
<path id="XMLID_13_" class="st2" d="M78.6,109.2c0.9,1.6,1.3,3.5,3.4,4.9c-4.8-6.6-0.2-9.3,4.3-12.1c0.7-0.4,1.2-1,1.9-1.5
	c0.8-0.5,1.6-1.3,2.5-0.9c0.2,0.1,0.4,0.2,0.5,0.3c0,0,0,0,0,0c0.5,0.6-0.1,1.4-0.3,2.1c-0.7,2.6,1.2,3.9,2.6,5.5
	c2.5,2.9,5.7,5.3,6.8,9.2c-0.9,0.1-0.8,1.7-1.5,2c-0.1,0.1-0.3,0.1-0.5,0c-0.2,0-0.4-0.1-0.7-0.3c-2-4.8-6.1-8-9.3-11.9
	c-0.9-1.2-1.8-0.9-2.7-0.1c-1.1,1-3.1,1.4-2,3.7c0.8,1.8,2.4,3.6,1,5.9c-0.2,0.5-0.5,1.1-0.7,1.6c-1.8,1.2-3.7,0.8-5.7,0.8
	c-0.3-0.3-0.5-0.5-0.8-0.8c1-0.9,2-1.7,0.9-3.3c-0.9-1.3-1.2-3-2-4.3c-2.2-3.6-1.8-6.6,2-8.8c3.2-1.9,3.1-3.9-0.1-6.1
	c-1.7,3.7-5.3,4-8.8,4.4c-1.3,0.1-2.5-0.1-2.7-1.7c-0.2-1.4,0.7-1.8,1.9-2c1.8-0.3,3.4-1.1,4.4-2.6c1.8-2.3,0.6-5.3-1.7-7.3
	c-0.7-0.6-3.6,1.1-2.5-2c0.8-2.2,0.1-5,3.2-5.7c2.1-0.5,3.8,0.6,4.4,2.6c0.5,1.6,1.5,1.3,2.5,1.2c2.9-0.4,4.1,1.5,5.9,3.3
	c8.3,8.5,10.9,20.2,17.7,29.5c-0.1,0.4-0.1,0.8-0.2,1.3c-4.8-3.3-7.2-8.4-9.4-13.5c-1.2-2.8-1.9-4.2-5.3-2.6
	c-2.4,1.2-5.3,0.4-7.7,2.6C77.9,104.7,77.1,106.5,78.6,109.2z"/>
<path id="XMLID_293_" class="st3" d="M64.2,105.7c0,8.9-3.4,12.2-12.3,12.2c-11.5,0.1-23.1,0-34.7,0.1c-3.9,0-7.8-0.3-11.5-1.6
	c-0.2,0-0.5,0-0.7,0c0.2-1.4-0.8-2.4-1.3-3.5c0,0,0,0,0,0c0-0.1-0.1-0.2-0.1-0.2c0,0.1,0,0.2,0,0.3c0,0.2-0.1,0.5-0.1,0.7
	c-0.1,0.3-0.2,0.5-0.3,0.7c0,0,0,0,0,0c-0.8-3.2-0.8-6.4-0.8-9.6c0-29.2,0-58.4,0-87.5c0-2,0.1-3.7,0.4-5.2c0.1-0.5,0.2-0.9,0.3-1.4
	c1.1-4.2,3.6-6.7,7.9-7.8c1.8-0.5,4-0.7,6.5-0.7c11.3,0,22.6,0.1,33.9-0.1c3.1,0,6,1,9.1,1c-0.8,0.5-1.7,0.6-2.5,0.5
	C58.8,3.8,59.4,4,60,4.3c3.7,2.5,4.2,6.4,4.3,10.3C64.3,45,64.3,75.4,64.2,105.7z"/>
<path id="XMLID_287_" class="st4" d="M60.6,3.1c-0.8,0.5-1.7,0.6-2.5,0.5c-1.4-0.1-2.7-0.7-4.1-0.7c-12,0.2-23.9,0.1-35.9,0.1
	C7.7,3,3.4,7.3,3.4,17.9c0,30,0.2,60,0.1,89.9c0,1.6,0.7,3.2,0.7,4.8v0c0,0.1-0.2,0.2-0.2,0.3c0,0.2-0.2,0.5-0.2,0.7
	c-0.1,0.3-0.2,0.5-0.3,0.7c0,0,0,0,0,0c-1.5-1.7-1.6-3.8-1.6-6c0-32.1,0-64.2-0.1-96.2c0-3.7,1.4-6.5,3.8-8.9C5.6,3.1,5.7,3.1,5.8,3
	c2.4-1.2,4.9-1.7,7.5-1.7c13,0,26,0,39,0C55.2,1.3,57.9,2.2,60.6,3.1z"/>
<path id="XMLID_11_" class="st5" d="M102.6,116.1c-0.5,1-1.4,0.5-2.2,0.6c-2.8-3.2-5.5-6.6-8.5-9.7c-2.1-2.2-4.4-4.1-0.7-7
	c0,0,0.1-0.1,0.1-0.1c0,0-0.1,0.1-0.2,0.1c-3.8,2.1-6.8,5.1-10.4,7c-1.1,0.6-0.1,1.4,0.1,2.1c0.5,1.5,1.3,2.9,1.8,4.4
	c0.3,0.9,1.3,2.1-0.3,2.7c-1.2,0.4-1.9-0.6-2.4-1.6c-0.5-1-0.9-1.9-1.4-2.9c-3.2-6.9-2.9-7.9,3.3-11.9c0.6-0.4,1.2-0.6,1.8-0.5
	c3.1,0.7,5.8-0.3,8.7-2.2C93.5,104.9,98.8,110.1,102.6,116.1z"/>
<path id="XMLID_240_" class="st6" d="M84.8,116c-0.5-1.8-0.8-3.7-1.7-5.3c-1-2-0.8-2.9,1.1-4.4c2.8-2.2,4.3-1.9,6.2,0.9
	c2,2.8,4.5,5.3,6.9,7.9c0.9,1,1.8,2,0.5,3.4c-3.7,1.6-7.6,0.6-11.3,0.7C84.5,119.1,85.7,116.9,84.8,116z"/>
<path id="XMLID_92_" class="st7" d="M78.9,87.4c-2.6,10.2-3.3,10.9-11.2,10.4c5.8-1.7,8.5-4.7,7.8-10.2c-0.2-1.4,0.7-4.1,3-4.5
	c2.4-0.5,4.2,0.8,5.3,2.8c1.6,3.2,3.8,5.8,6.6,8c1.7,1.3,1.4,2.2-0.3,3.2c-2.4,1.3-5,2-7.3,0.5c-2.2-1.4-4-3.6-3.5-6.7
	C79.5,89.7,79.9,88.4,78.9,87.4z"/>
<path id="XMLID_91_" class="st8" d="M75.7,81.2c0.7,2.2,0.1,3.7-1.6,4.5c-0.4,0.2-1.8-0.6-1.9-1C72,82.4,74.5,82.6,75.7,81.2z"/>
<path id="XMLID_90_" class="st9" d="M70.6,82.7c0.1-2.8,1.3-3.7,4.2-3C73.6,81.4,72.4,82.2,70.6,82.7z"/>
<path id="XMLID_83_" class="st10" d="M17.9,98.3c1.4,0,2.7,0,4.1,0c4.8-2.1,9.7-2.1,14.5,0c1.4,0,2.7,0,4.1,0
	c3.3-2.3,7-1.1,10.5-1.3c5.8-0.2,5.8-0.1,6-6c0.1-1.7-0.1-3.5,1.3-4.9c0.1-21.5,0.1-43,0.2-64.5c0-2.3-0.9-2.6-2.9-2.6
	c-15.1,0.1-30.1,0.1-45.2,0c-2.3,0-3,0.6-3,3c0.1,3.9-0.1,7.8-0.2,11.7c-1.5-0.4-1-1.7-1.1-2.6c-0.1-3.4,0.1-6.7-0.1-10.1
	c-0.1-2.7,1.1-3.5,3.6-3.5c15.6,0.1,31.2,0,46.8,0c1.3,0,2.8-0.2,3.1,1.7c-0.6,1.4-0.3,2.9-0.3,4.4c0,23.7,0,47.5,0,71.2
	c0,1.5,0.3,3-0.3,4.4l0,0c-1.3,0.7-2.6,0.3-4,0.3c-14.7,0-29.3,0-44,0c-1.3,0-2.7,0.4-3.9-0.4c0-0.4,0-0.8,0-1.1
	C10.9,96.8,14.4,96.3,17.9,98.3z"/>
<path id="XMLID_82_" class="st11" d="M17.9,98.3c-3.5,0.1-7.1,0.7-10.6-0.5c0-0.3,0.1-0.7,0.1-1C6.8,96.1,7,95.3,7,94.5
	c0-16.1,0-32.2,0-48.3c0-0.7,0-1.3,0.3-2c0,0,0.2-0.1,0.2-0.1c1.1,1.3,0.7,2.8,0.7,4.3c0,12.6,0,25.3,0,37.9c0,2.5-0.6,5.4,3.8,2.8
	c1.6-0.9,4.3,0.7,5.3,2.3C18.7,93.3,20.2,95.8,17.9,98.3z"/>
<path id="XMLID_81_" class="st12" d="M59.1,99.1c0-25.2,0.1-50.5,0.1-75.7c0-1.4-0.5-3,0.5-4.3c0,26,0.1,51.9,0.1,77.9
	C59.9,97.8,60.1,98.7,59.1,99.1z"/>
<path id="XMLID_80_" class="st13" d="M34.8,114.7c-3.6,0-6.5-2.9-6.4-6.3c0.1-3.3,2.9-6.1,6.2-6.1c3.4,0,6.4,3.1,6.4,6.4
	C41,112.1,38.2,114.7,34.8,114.7z"/>
<path id="XMLID_79_" class="st12" d="M7.3,44.2c0,17.5,0.1,35,0.1,52.6c-1.5-0.5-1-1.8-1-2.7c0-15.8,0-31.7,0-47.5
	C6.4,45.7,6,44.6,7.3,44.2z"/>
<path id="XMLID_78_" class="st12" d="M7.3,99c17.3,0,34.6,0.1,51.9,0.1c-0.5,1.2-1.6,0.8-2.5,0.8c-15.7,0-31.4,0-47.1,0
	C8.8,99.8,7.6,100.3,7.3,99z"/>
<path id="XMLID_31_" class="st14" d="M29.9,108.6c0.3-2.9,1.7-4.7,4.8-4.8c3.1,0,4.8,1.9,4.8,4.8c0,2.7-1.9,4.6-4.6,4.7
	C31.9,113.4,30.2,111.6,29.9,108.6z"/>
<line id="XMLID_7_" class="st15" x1="105.9" y1="118.5" x2="104.6" y2="118.5"/>
<polyline id="XMLID_5_" class="st15" points="98.9,118.7 98.5,118.7 98.4,118.7 "/>
<path id="XMLID_9_" class="st2" d="M104.6,118.5l-5.7,0.2c0.7-0.3,0.6-1.9,1.5-2c0.8-0.1,1.7,0.5,2.2-0.6c0.1-0.4,0.1-0.9,0.2-1.3
	L104.6,118.5z"/>
</svg>
