<?xml version="1.0" encoding="utf-8"?>
<!-- Generator: Adobe Illustrator 19.0.0, SVG Export Plug-In . SVG Version: 6.00 Build 0)  -->
<svg version="1.1" id="Layer_1" xmlns="http://www.w3.org/2000/svg" xmlns:xlink="http://www.w3.org/1999/xlink" x="0px" y="0px"
	 viewBox="0 0 65 53.7" style="enable-background:new 0 0 65 53.7;" xml:space="preserve">
<style type="text/css">
	.st0{fill:#EE7E65;}
	.st1{fill:#29435A;}
	.st2{fill:#2E445B;}
	.st3{fill:#4F6F85;}
	.st4{fill:#2F556F;}
</style>
<g id="XMLID_347_">
	<path id="XMLID_339_" class="st0" d="M58.7,34.8c-2.3,11.9-17.4,23.1-31.9,17.3c1.4-1.9,3.5-1.4,5.3-1.3c7.4,0.4,13.2-2.6,18.1-7.9
		C38.3,55,20,53.6,10.9,39.9c-1-1.5-2.7-2.9-1.2-5C9.1,26.8,9.3,19,15.3,12.4c5.2-5.7,11.3-8.8,19-8.7c1.9,0,3.8-0.2,5.7-0.3
		c7.5,1,15.5,10.2,16.7,18.8C57.3,26.4,55.9,30.9,58.7,34.8z"/>
	<path id="XMLID_325_" class="st1" d="M9.6,34.9c6.4,18.3,26,19.9,43.9,3.5c-1,8.5-11.8,14-26.8,13.8C10.2,46.6,2.9,34.8,7,18.5
		c1.1-4.5-3.1-2.6-3.7-4.6c7.1-1.7,7.2-1.6,5.3,5C7,24.4,6.8,29.7,9.6,34.9z"/>
	<path id="XMLID_323_" class="st2" d="M58.7,34.8c-4.4,0.1-3.3-2.9-3.2-5.5c0.8-12.7-4.3-21.2-15.6-26c-6.5-2.6-13-1.5-19.5,0.2
		c5.6-4.2,11.9-4.2,18.2-2.5C49.8,4,58.2,14.5,58.6,26.1c0.1,4.3,0.3,7.7,6.4,6.2C63.3,35.5,60.5,33.6,58.7,34.8z"/>
	<path id="XMLID_317_" class="st3" d="M9,5.1c-3.9,1.6-6.2,2-9-0.2C3,3.9,5.2,4,9,5.1z"/>
	<path id="XMLID_316_" class="st4" d="M11.8,5.8c0.9-2.7,2.5-4.4,6.4-5.4C16.1,3.4,14.2,4.8,11.8,5.8z"/>
</g>
</svg>
