<?xml version="1.0" encoding="utf-8"?>
<!-- Generator: Adobe Illustrator 19.0.0, SVG Export Plug-In . SVG Version: 6.00 Build 0)  -->
<svg version="1.1" xmlns="http://www.w3.org/2000/svg" xmlns:xlink="http://www.w3.org/1999/xlink" x="0px" y="0px"
	 viewBox="0 0 161 102.9" style="enable-background:new 0 0 161 102.9;" xml:space="preserve">
<style type="text/css">
	.st0{fill:#0E3654;}
	.st1{fill:none;}
	.st2{fill:#EC7E64;}
	.st3{fill:#B8D5EF;}
	.st4{fill:#3A617D;}
	.st5{fill:#1B4664;}
	.st6{fill:#BDD9F3;}
	.st7{fill:#BDD9F2;}
	.st8{fill:#E6EBED;}
	.st9{fill:#EE7E65;}
	.st10{fill:#E6ECEE;}
	.st11{fill:#ED7E65;}
	.st12{fill:#2E3E52;}
	.st13{fill:#E4E9EC;}
	.st14{fill:#61C8ED;}
	.st15{fill:#62C9EE;}
	.st16{fill:#DCE3E7;}
	.st17{fill:#1B4665;}
	.st18{fill:#244F6D;}
	.st19{fill:#345D7B;}
	.st20{fill:#1D4968;}
	.st21{fill:#2F5978;}
	.st22{fill:#234E6D;}
	.st23{fill:#38617F;}
	.st24{fill:#1E4A68;}
	.st25{fill:#214C6B;}
	.st26{fill:#1D4867;}
	.st27{fill:#406885;}
	.st28{fill:#2A5473;}
	.st29{fill:#2F5977;}
	.st30{fill:#365F7D;}
	.st31{fill:#2A5573;}
	.st32{fill:#1B3750;}
	.st33{fill:#1C3750;}
	.st34{fill:#1D4765;}
	.st35{fill:#BAD7F1;}
	.st36{fill:#BBD7F1;}
	.st37{fill:#E77C64;}
	.st38{fill:#F7F8F9;}
	.st39{fill:#1F4966;}
	.st40{fill:#FAFBFC;}
	.st41{fill:#FAFBFB;}
	.st42{fill:#1E4763;}
	.st43{fill:#1B4461;}
	.st44{fill:#F6F8F9;}
</style>
<g id="Layer_2">
</g>
<g id="Layer_1">
	<g id="XMLID_1_">
		<path id="XMLID_9_" class="st0" d="M132.1,0.3L94.1,0.4c1.3,0,2.3-0.1,3.1-0.3l34.1,0.1C131.6,0.2,131.8,0.3,132.1,0.3z"/>
		<path id="XMLID_12_" class="st0" d="M132.1,35.2c2.6,4.7,5.2,8.4,10.7,11c19.5,9.5,22,36.4,5.2,50.2c-1.6,1.3-3.3,2.6-4.9,3.9
			c-0.5-0.5-1-1.1-1.5-1.6c-0.2-2.1,1.5-2.9,2.9-3.9c13.7-10,13.9-28.4,5.4-38.9c-9.6-11.8-27.1-13.5-39.3-3.2
			c-5.2,4.4-8.2,10.4-8.7,17.4c-0.1,2.4,0.6,5-1.7,6.9c-0.4,0.5-0.7,0.9-1.1,1.4c-3-1-2.4-3.6-2.4-5.7c0.3-8.5,3.1-16,9.2-22.1
			c1.3-1.3,3-2.3,3.7-3.9c-0.2-0.7-0.5-1.2-0.9-1.1c-8.2,2.1-15.3,6.7-22,11.5c-2.5,1.8-3.6,6-7.7,6.6c-3,1-5.7,0.9-7.2-2.5
			c-0.8-1.5-0.8-3.2-1-4.8C64.8,44.7,58.5,33,52.4,21.2C48.3,13.4,42,9.4,33.2,9.4c-9.3,0-18.7,0.2-28,0.1c-1.8,0-5,1.6-5.2-1.4
			c-0.2-3.1,1-6.5,4.7-7.6c1.4-0.4,3-0.3,4.6-0.3C37.5,0.1,65.7,0,93.9,0h0.2l3.1,0l34.1,0h0.6c0.3,0,0.7,0.2,1.1,0.2
			c4.8-0.2,9.5-0.1,14.3,0c6.6,0.1,12.4,5.5,13.5,11.9c0.5,2.8-1.5,3.2-3,4.1c-8,4.4-16,8.9-24.1,13
			C130.7,30.8,130.4,32.2,132.1,35.2z"/>
		<line id="XMLID_7_" class="st1" x1="131.9" y1="0" x2="131.9" y2="0"/>
		<line id="XMLID_6_" class="st1" x1="93.9" y1="0" x2="93.9" y2="0"/>
		<g id="XMLID_513_">
			<path id="XMLID_788_" class="st2" d="M65.3,18.3c4.6-1.2,7.1-0.1,9,4c3.4,7.4,7.4,14.5,11.2,21.7c1,1.9,2,3.5-0.8,5.1
				c-2.9,1.6-3.6-0.3-4.6-2.2C75.3,37.6,70.4,28.2,65.3,18.3z"/>
			<g id="XMLID_729_">
				<g id="XMLID_784_">
					<path id="XMLID_787_" class="st3" d="M17.9,21.9c1.5-7.9,1.8-6.4,9.6-8c8.8-1.8,12.3,1.4,15,8.6c1,2.7,5.3,2.9,5.7,6.4
						c-1.8,3.2-4.8,1.6-7.1,1.2C34.6,29,28,29,21.4,30c-3.2,0.5-7.8,1.9-9.2-2C11,24.6,16.1,24.1,17.9,21.9z"/>
					<path id="XMLID_786_" class="st4" d="M17.9,21.9c1.2,4.5-4.6,3.2-5.4,7.1c3.3-0.2,6.4-0.3,9.5-0.7c7.8-1.1,15.6-0.8,23.3,0.9
						c1.1,0.2,2.1,1,3-0.3c0.8,4.4,0.9,4.3-2.8,3.5c-2.3-0.6-4.6-0.5-6.7,0.9c-1.9,0-3.9,0-5.8,0c1.5-0.6,3-1.2,4.5-1.9
						c-7.2-1.8-21.7,0.8-27.2,4.7c-2.5-2-3.6-4.3-1.4-7.2c0.9-4.2,5.3-6.2,6.7-10.2C17.5,18.9,16.5,21.2,17.9,21.9z"/>
					<path id="XMLID_785_" class="st3" d="M10.2,36c0.7-3.6,2.7-4.8,6.5-5.2c7.6-0.7,15.2-0.9,22.8-0.1c-0.7,0.2-1.4,0.3-2.1,0.5
						c-7.2-0.5-13.9,1.1-20,5.2C15,38.1,12.4,39.4,10.2,36z"/>
				</g>
				<g id="XMLID_733_">
					<path id="XMLID_783_" class="st5" d="M72.1,57.3c0.7,1.2,1.3,2.4,2,3.6c-4.3,2-5.9-1.4-7.4-4.1c-6.3-10.6-11.5-21.7-17.3-32.1
						c0.9,2.1,2.3,4.5,3.3,7.1c1.6,4.4,0.1,6.3-4.4,5.5c-3.1-0.6-6.4-1-9.3-2.4c0-4.3,3.4-2.8,5.6-3.1c1.5-0.2,3.4,0.6,2.1-2.1
						c-3-3.9-6.9-7-8.8-11.7c-0.7-1.9-2.5-2.7-4.7-2.1c-1.5,0.4-3,0.7-4.5,0.5c-5.4-0.9-8.5,1.4-10,6.5c-1.9,1.2-2.6-1.2-4-1.4
						c-5.6,0.5-3.3,5.3-4.5,8.2c-0.2,0.7,0-0.2-0.1,0.5c-0.3,2.1-3,4.8,1.3,5.9c2.5,2.5,4.6,0.6,6.6-0.7c4.3-2.7,9.1-3.9,14-4.6
						c2-0.3,4.2-0.5,5.9,1.3c-0.3,2.9-3,2.4-4.7,3.2c-4.6,0.7-9,1.9-12.9,4.4c-1,0.6-2,1.1-3.1,1.4c-8.1,2.3-8.1,2.3-9,11
						c-0.6,5.5-2.3,10.8-2.2,16.5c2.5-8.2,6.4-15.4,13.3-20.5c7.1-5.3,15.1-7.1,23.8-5.8c8.7,1.3,15.6,5.8,20.9,12.8
						c5.1,6.8,6.6,14.7,7,23.4c0-7.2,2.2-12.6,9.3-14.8c9.2-1.5,14.6,2.2,14.9,11.3c0.1,4.3,3.4,4.5,5.5,6.2
						c-0.4,0.7-0.7,1.4-1.1,2.1c-8.2-0.1-15.9,5.4-24.5,0.8c-3.8-2-7.2,0.8-9.1,4.7c-3.7,7.3-9.4,12.3-17.5,14.1c-1-0.4-2-0.8-3-1.2
						c0.7-2.7,3.4-2.8,5.3-3.9C61.8,91.5,67,80,64.2,67.4c-2.4-11.1-13.7-20.8-25.6-20.9c-10.6,0-21.6,5.5-26.2,18.5
						c-3.8,10.4,0.4,23.7,9,30.2c2.2,1.6,5.5,2.1,6,5.5c-0.4,0.3-0.8,0.7-1.3,1C15.5,97,9.6,88.8,7.7,77.5c-0.2-1.1,0.3-2.9-0.8-3
						c-11-0.8-5.1-9.4-4.3-12.6c2.4-9.3,2.1-18.8,3.9-28.1c0.5-2.4,0.3-4.9,0.6-7.3c0.7-5.3,0.9-10,8.2-8.6c0.4,0.1,1.3-0.3,1.5-0.6
						c3.9-8.5,12-2.9,17.8-5.2c2.3-0.9,4.9,1.1,6.1,4c1.2,2.9,2.7,5.5,6.8,3.6c3.1-1.4,3.8,1.6,4.8,3.5
						c6.1,11.4,12.1,22.8,18.2,34.2c0.1,0.3,0.5,0.6,0.8,0.6C71.6,57.9,71.8,57.5,72.1,57.3z"/>
					<path id="XMLID_782_" class="st6" d="M27.4,100.7c-7.2-3.9-13.2-8.9-16.1-16.9C6,69.2,13,53.1,27.1,47.3
						c14.4-5.9,31,1,37.1,15.3c6,14.2-0.2,30.3-14.4,37c-1.5,0.7-3.1,1.4-4.6,2.1C39.2,102.6,33.2,102.4,27.4,100.7z"/>
					<path id="XMLID_781_" class="st7" d="M101.4,77.9c0.1-15.9,6-26.1,17.9-30.8c13.1-5.1,28.2,0.2,35.2,12.2
						c7.2,12.5,4.2,28.1-7.2,36.9c-1.5,1.2-3.1,2.2-4.6,3.3C122,106.6,106.8,98.6,101.4,77.9z"/>
					<path id="XMLID_780_" class="st8" d="M100.4,81.2c-4.4,0.1-7.6-0.2-6.8-6.5c0.9-7-4.2-10.5-13.8-10.8c0-0.2,0-0.4,0-0.6
						c2.2-1.4,6.6-0.5,5.5-5.5c-0.1-0.4,1.6-1.4,2.5-2c6.6-3.7,13.4-7.1,19.8-11c2.8-1.7,4.4-0.4,5.7,1.3c1.9,2.5-1.3,2.5-2.2,3.4
						c-8.9,8-13.7,17.4-10.8,29.7C100.4,79.9,100.4,80.6,100.4,81.2z"/>
					<path id="XMLID_779_" class="st9" d="M141.6,5.7c2.9-4.4,7.2-2.8,10.9-1.9c4.2,1,6.2,4.7,7.5,8.7c0.5,1.6-0.5,2.4-1.8,3.1
						c-24.3,13.2-48.5,26.4-72.8,39.6c-0.7,0.4-1.4,0.6-2.1-0.1c-3.2-2.3-1.5-4.4,0.7-5.8c2.6-1.7,2.2-3.4,1.1-5.7
						c-3.9-7.8-8.6-15.2-12.2-23.2c-1.3-2.8-3.3-4.1-6.3-3.6c-1.5,0.2-3.1,0.3-4.3-0.9c-1.9-1.9-3.6-4.4-2.8-7.1
						C60.1,6,63,6.5,65.2,6.5c22.4-0.1,44.9,0,67.3-0.1C135.6,6.4,138.6,6.8,141.6,5.7z"/>
					<path id="XMLID_778_" class="st10" d="M79.9,63.4c0,0.2,0,0.4,0,0.6c-5.1,3.4-8.1,7.5-6.8,14.2c0.8,3.8-3.5,1.2-4.9,2.9
						c0.6-6.7,0.5-13-2.1-19.1c-5.5-12.7-17.7-19.8-31.7-18.6C22.1,44.6,11.2,54.4,8.2,67.2c-0.3,1.1-0.4,2.2-0.5,3.4
						c-0.2,1.6-1.3,1.5-2.5,1.6c-1.5,0-2-0.6-1.7-2.1c1.4-9.2,2.7-18.3,4.1-27.5c0.2-1,0.7-2.1,1.7-1.9c6.8,1.8,11.2-3.9,17-5.2
						c2.2-0.5,4.5-0.9,6.7-1.3c1.9-0.4,3.9-0.6,5.8,0c3.5,0.7,7.1,1.5,10.6,2.2c1.6,0.3,3.8,0.5,2.8-1.8c-1.8-4.3-2-9.7-7.8-11.7
						c5-1.2,5-1.2,7.1,2.6c5.4,10.2,10.9,20.5,16.3,30.7c1.4,2.7,3.1,4.8,6.5,4.7C74.8,64.5,76.9,64.9,79.9,63.4z"/>
					<path id="XMLID_777_" class="st11" d="M81.7,55.1c0.1,2,3,4.1-1.2,5.9c-4,1.7-4.5-0.8-5.7-3.1C68.4,45.9,62.1,34,56,22
						C51.1,12.4,43.5,7.7,32.6,8C24.2,8.2,15.8,8.2,7.5,8.1C6.3,8.1,4,9.3,3.9,6.8c0-1.5,0.9-3.3,2.7-3.2C22.7,3.9,38.9,2,54.9,4.5
						c0.8,0.5,1.8,0.8,2.3,1.7c8.2,15.5,17,30.6,24.2,46.7C81.7,53.5,81.8,54.3,81.7,55.1z"/>
					<path id="XMLID_776_" class="st12" d="M81.7,55.1C72.8,38.2,63.8,21.3,54.9,4.5c1.2-1.7,2.7-2.3,4.8-2.3
						c26.4,0.1,52.8,0,79.2,0.1c0.7,0,2.1-0.6,1.8,1.2c-2.2,1.5-4.8,1.1-7.2,1.1c-22.7,0-45.3,0-68,0c25,0,50.1,0,75.1,0
						c0.3,0.4,0.7,0.7,1,1.1c-1.2,3.3-4.1,2.2-6.4,2.2c-23,0.1-46.1,0-69.1,0c-2,0-4.1,0-6.6,0c1.8,4.6,2.8,9,8.9,7.4
						c2.5-0.7,4.2,0.8,5.4,3.2c4.4,8.7,8.8,17.3,13.5,25.8c1.6,2.9,1.2,4.5-1.8,5.6c-2.6,0.9-3.7,2.5-2.1,5.1
						C82.7,55,82.2,55,81.7,55.1z"/>
					<path id="XMLID_775_" class="st9" d="M140.6,4.6c-1.4,1.3-3.1,1.2-4.9,1.2c-24.8,0-49.5,0-74.3,0c-1.4,0-3.1,0.6-4.5-2.3
						c28.3,0,56.1,0,83.8,0C140.6,3.8,140.6,4.2,140.6,4.6z"/>
					<path id="XMLID_774_" class="st13" d="M134.8,43.5c-6-0.3-11.6-0.4-16.7,2.3c-2.6,1.4-3.4-0.6-4.3-1.9
						c-2.1-2.7,1.2-2.5,2.1-3.3c1.5-1.2,3.3-1.9,5-2.8C130.2,32.8,130.2,32.8,134.8,43.5z"/>
					<path id="XMLID_773_" class="st14" d="M83.2,83.5c-2.4-0.2-4.5-1-6.1-2.7c-1.2-1.3-3.2-3.3-1.7-4.7c1.7-1.7,3.1,0.3,4.4,1.9
						c2.2,2.9,4.9,2.6,7.2,0.1c1.3-1.4,2.4-3.9,4.3-1.9c1.3,1.4-0.7,3.4-2,4.8C87.7,82.6,85.6,83.4,83.2,83.5z"/>
					<path id="XMLID_772_" class="st15" d="M83.6,70c-1.9-0.2-3.4,0.2-4.4,2c-0.7,1.4-2.2,2-3.3,1c-1.7-1.4-0.1-2.7,0.7-3.8
						c3.3-4.3,10.9-4,13.8,0.5c0.6,1,1.5,2.1,0.6,3c-1,1.1-2.5,0.9-3.4-0.4C86.7,70.7,85.5,69.6,83.6,70z"/>
					<path id="XMLID_771_" class="st16" d="M15.6,19.6c0.8,2.6,0.7,4.6-2.4,5.9c-1.7,0.7-2.9,2.8-4.3,4.3c0.2-1.7,0.4-3.3,0.4-5
						C9.3,20.4,11.5,19,15.6,19.6z"/>
					<path id="XMLID_770_" class="st14" d="M86.5,75.1c-0.6,1.5-1.3,2.8-3.2,2.7c-2.1-0.2-2.9-1.6-2.8-3.4c0.1-1.8,1.5-2.4,3.3-2.2
						C85.7,72.3,86.1,73.7,86.5,75.1z"/>
					<path id="XMLID_769_" class="st17" d="M57.6,73.6c0,10.8-8.7,19.7-19.4,19.9c-10.8,0.2-20.2-9.1-20.1-19.9
						c0.1-10.5,9.3-19.7,19.8-19.7C48.5,53.9,57.6,63,57.6,73.6z"/>
					<path id="XMLID_768_" class="st18" d="M62.7,74c1.6,5.3,0.4,9.9-3.4,13.7C60.5,83.2,61.6,78.6,62.7,74z"/>
					<path id="XMLID_767_" class="st19" d="M38.2,98.1c-3.6,2.3-6.9,1.3-10.3,0c0-0.5,0.1-1,0.1-1.5C31.4,97.1,34.8,97.6,38.2,98.1z
						"/>
					<path id="XMLID_766_" class="st20" d="M22.7,55.2c-2.3,2.7-4.7,5.4-7,8C16.4,59.1,18.7,56.3,22.7,55.2z"/>
					<path id="XMLID_765_" class="st21" d="M38.6,47.4c-2.7,2.2-5.1,1.9-8.2,1.4C33.1,46.4,35.5,46.7,38.6,47.4z"/>
					<path id="XMLID_764_" class="st22" d="M53.7,53c-2.7-0.3-5.2-1.1-7.4-3.6C50,49.1,51.9,51,53.7,53z"/>
					<path id="XMLID_763_" class="st23" d="M12.9,76.5c-0.9-3.4-1-5.4,0.2-7.8C15.4,71,14.3,73,12.9,76.5z"/>
					<path id="XMLID_762_" class="st24" d="M18.6,90.4c-2.8-1-3.7-3.2-4.1-5.6C17,85.9,17.8,88.1,18.6,90.4z"/>
					<path id="XMLID_761_" class="st17" d="M149.6,74c-0.2,10.6-9.4,19.6-19.9,19.5c-10.9-0.1-19.9-9.4-19.5-20.4
						c0.3-10.7,9.6-19.5,20.1-19.2C140.9,54.3,149.8,63.5,149.6,74z"/>
					<path id="XMLID_760_" class="st25" d="M125.3,48.4c-5.7,2.6-9.7,5.1-14.2,8.4C114,51.4,118,48.9,125.3,48.4z"/>
					<path id="XMLID_759_" class="st23" d="M136.8,99.2c-3.5,0.9-7.1,2.2-10.8-0.5c3.6-0.3,7.1-0.6,10.7-1
						C136.8,98.2,136.8,98.7,136.8,99.2z"/>
					<path id="XMLID_758_" class="st26" d="M147.7,55.5c3.2,1.8,5,4.8,6.1,8.2C150.6,61.9,149,58.8,147.7,55.5z"/>
					<path id="XMLID_757_" class="st27" d="M153.3,81.8c-0.6-2.6-0.6-5,1.3-8C156.2,77.4,155,79.6,153.3,81.8z"/>
					<path id="XMLID_756_" class="st28" d="M117.7,96.5c-3.9-1.5-5.5-3-7.7-5.9C113.9,91.4,115.5,93,117.7,96.5z"/>
					<path id="XMLID_755_" class="st29" d="M108.1,86.7c-3.8-3.1-4.2-5.7-4.3-9.9C106.7,80.1,106.7,82.7,108.1,86.7z"/>
					<path id="XMLID_754_" class="st30" d="M143.2,95.4c1-3,2.9-3.8,4.8-5.1C147.3,93.4,147.3,93.4,143.2,95.4z"/>
					<path id="XMLID_753_" class="st31" d="M106.2,62.1c0.4,2.3,0,4.3-1.9,6.3C103.2,65.3,104.9,63.8,106.2,62.1z"/>
					<path id="XMLID_752_" class="st32" d="M94.2,14.8c6-1.9,9.2,1.8,11.2,7.7c0.2,0.7,0.7,1.4,1,2c5.4,11,5.4,10.9-5.4,16.2
						c-3.3,1.7-4.9,1.3-6.3-2.2c-2.6-6.1-5.6-12-8.5-18c-2.7-5.7-2.7-5.7,3.7-5.7C91,14.8,92.1,14.8,94.2,14.8z"/>
					<path id="XMLID_751_" class="st33" d="M123,14.8c4.5-1,8.8,0.2,10.6,6.1c0.1,0.4,0.5,0.7,0.5,1c-1.2,5.5-6.8,4.7-10.1,7.2
						c-1.5,1.1-3.6,2.7-5.1-0.4c-0.8-1.7-1.6-3.4-2.5-5.1C112.1,14.8,112.1,14.8,123,14.8z"/>
					<path id="XMLID_750_" class="st34" d="M29.1,15.5c1.6,0.7,4.9-0.9,4.6,2.4c-0.3,2.6,1.2,7.1-4.2,7c-0.9,0-2,0-2.8,0.4
						c-2.4,1.1-5,4.7-7.4,0.7c-1.7-2.8,2.7-9.3,6.3-10.1C26.7,15.6,27.9,15.6,29.1,15.5z"/>
					<path id="XMLID_749_" class="st35" d="M20.3,73.6c0-9.9,7.9-17.6,17.8-17.6c9.8,0.1,17.8,8.1,17.7,17.8
						c-0.1,9.7-8.2,17.7-17.9,17.6C28,91.5,20.2,83.5,20.3,73.6z"/>
					<path id="XMLID_748_" class="st36" d="M147.5,74c-0.1,9.8-8.2,17.7-18,17.5c-9.7-0.2-17.7-8.4-17.5-18.1
						c0.2-9.7,8.3-17.5,18.1-17.4C140,56.2,147.6,64,147.5,74z"/>
					<path id="XMLID_747_" class="st2" d="M94.8,16.4c4.5-1.5,6.8,1.6,8.5,5.9c0.7,1.8,1.8,3.4,2.5,5.1c3.5,7.9,5,6.1-3.5,10.6
						c-3.7,2-5.4,1.6-7-2.4c-1.9-4.9-4.3-9.8-6.8-14.4c-2.3-4.2-1-5.3,3.2-4.8C92.5,16.5,93.2,16.4,94.8,16.4z"/>
					<path id="XMLID_746_" class="st37" d="M132.1,21.8c-0.7,2.6-3.1,2.8-4.8,3.6c-2.1,0.9-4.7,3.8-6.4,2.1c-2.4-2.4-3.4-6.2-5-9.4
						c-0.1-0.3,0-1,0.1-1c3.8-1.4,7.8-0.7,11.6-0.5C130.6,16.7,130.4,20.2,132.1,21.8z"/>
					<path id="XMLID_745_" class="st38" d="M21.1,25.8c0.9-5.1,2.2-8.5,7.4-8.5c1.3,0,3.3-0.6,3.2,1.9c-0.1,1.6,0.3,3.9-2.4,3.6
						C26.4,22.5,24.5,24.8,21.1,25.8z"/>
					<path id="XMLID_744_" class="st39" d="M37.7,59.4c8.1-0.1,14.6,6.2,14.7,14.1c0.1,7.9-6.3,14.6-14.2,14.7
						c-8,0.1-14.5-6.2-14.6-14.2C23.4,65.8,29.6,59.5,37.7,59.4z"/>
					<path id="XMLID_743_" class="st39" d="M144.2,73.6c0,8.1-6.3,14.5-14.3,14.6c-7.9,0.1-14.5-6.4-14.6-14.4
						c-0.1-7.9,6.4-14.4,14.4-14.5C137.9,59.3,144.2,65.5,144.2,73.6z"/>
					<path id="XMLID_742_" class="st40" d="M37.7,86.2c-7-0.1-12.6-5.9-12.4-12.9c0.2-6.6,6-12.3,12.6-12.3c7,0,12.6,5.7,12.5,12.7
						C50.4,81,44.9,86.3,37.7,86.2z"/>
					<path id="XMLID_741_" class="st41" d="M129.9,86.2c-7.2,0-12.5-5.5-12.5-12.7c0.1-7,5.9-12.7,12.8-12.5
						c6.6,0.2,12.3,5.9,12.3,12.5C142.6,80.5,136.9,86.2,129.9,86.2z"/>
					<path id="XMLID_740_" class="st42" d="M37.9,66c4.2,0,7.6,3.3,7.7,7.5c0.1,4.4-3.3,8-7.7,8c-4.4,0-7.9-3.6-7.8-8
						C30.3,69.3,33.8,66,37.9,66z"/>
					<path id="XMLID_739_" class="st43" d="M130.1,66c4.2,0.1,7.5,3.5,7.5,7.8c0,4.5-3.5,7.9-8.1,7.7c-4.5-0.2-7.7-3.8-7.5-8.3
						C122.4,68.9,125.8,65.9,130.1,66z"/>
					<path id="XMLID_738_" class="st44" d="M37.8,79.7c-3.4-0.5-5.8-2.3-5.8-5.8c-0.1-3.7,2.3-6.1,6-6.1c3.7,0,6,2.5,5.8,6.3
						C43.6,77.5,41.3,79.4,37.8,79.7z"/>
					<path id="XMLID_737_" class="st38" d="M130,79.7c-3.4-0.3-5.8-2.1-6-5.6c-0.2-3.7,2-6.3,5.7-6.4c3.7-0.1,6.1,2.3,6.1,6
						C135.8,77.3,133.4,79.2,130,79.7z"/>
					<line id="XMLID_734_" class="st1" x1="97.9" y1="1" x2="53.9" y2="1"/>
				</g>
			</g>
		</g>
	</g>
</g>
</svg>
