<?xml version="1.0" encoding="utf-8"?>
<!-- Generator: Adobe Illustrator 19.0.0, SVG Export Plug-In . SVG Version: 6.00 Build 0)  -->
<svg version="1.1" id="Layer_1" xmlns="http://www.w3.org/2000/svg" xmlns:xlink="http://www.w3.org/1999/xlink" x="0px" y="0px"
	 viewBox="0 0 114.1 71.9" style="enable-background:new 0 0 114.1 71.9;" xml:space="preserve">
<style type="text/css">
	.st0{fill:#0E3654;}
	.st1{fill:#1B4664;}
	.st2{fill:#E6EBED;}
	.st3{fill:#EE7E65;}
	.st4{fill:#E6ECEE;}
	.st5{fill:#ED7E65;}
	.st6{fill:#2E3E52;}
	.st7{fill:#E4E9EC;}
	.st8{fill:#B8D5EF;}
	.st9{fill:#3A617D;}
	.st10{fill:#62C9EE;}
	.st11{fill:#DCE3E7;}
	.st12{fill:#61C8ED;}
	.st13{fill:#1B3750;}
	.st14{fill:#1C3750;}
	.st15{fill:#EC7E64;}
	.st16{fill:#1D4765;}
	.st17{fill:#E77C64;}
	.st18{fill:#F7F8F9;}
	.st19{fill:none;}
</style>
<path id="XMLID_36_" class="st0" d="M20.4,24.8c-1.8,3.3-3.7,5.9-7.5,7.8C-0.9,39.2-2.6,58.2,9.2,67.9c1.1,0.9,2.3,1.8,3.4,2.7
	c0.3-0.4,0.7-0.8,1-1.1c0.1-1.5-1.1-2.1-2-2.8c-9.6-7.1-9.8-20-3.8-27.4c6.8-8.3,19.1-9.5,27.7-2.3c3.7,3.1,5.8,7.3,6.1,12.3
	c0.1,1.7-0.4,3.5,1.2,4.9c0.3,0.3,0.5,0.7,0.8,1c2.1-0.7,1.7-2.5,1.7-4c-0.2-6-2.2-11.3-6.5-15.6c-0.9-0.9-2.1-1.6-2.6-2.7
	c0.2-0.5,0.4-0.8,0.6-0.8c5.8,1.5,10.8,4.7,15.5,8.1c1.8,1.3,2.5,4.2,5.4,4.6c2.1,0.7,4,0.6,5.1-1.7c0.6-1.1,0.6-2.2,0.7-3.4
	c4.4-8.3,8.8-16.5,13.1-24.8c2.9-5.5,7.3-8.4,13.5-8.4c6.6,0,13.2,0.1,19.8,0c1.3,0,3.5,1.2,3.7-1c0.1-2.2-0.7-4.6-3.3-5.4
	c-1-0.3-2.1-0.1-3.2-0.1c-19.9,0-39.8-0.1-59.7,0c-0.6,0-1.1-0.1-1.5-0.1h0H19.8h-0.2c-3.4,0-6.7,0-10.1,0.1C4.9,0.2,0.8,4,0.1,8.4
	c-0.3,2,1.1,2.3,2.1,2.9c5.6,3.1,11.3,6.3,17,9.2C21.4,21.6,21.6,22.6,20.4,24.8z"/>
<path id="XMLID_336_" class="st1" d="M63.5,39.7c-0.5,0.8-0.9,1.7-1.4,2.5c3,1.4,4.1-1,5.2-2.9c4.4-7.5,8.1-15.3,12.2-22.7
	c-0.7,1.5-1.7,3.2-2.3,5c-1.1,3.1-0.1,4.5,3.1,3.9c2.2-0.4,4.5-0.7,6.6-1.7c0-3-2.4-2-3.9-2.2c-1-0.1-2.4,0.4-1.5-1.5
	c2.1-2.7,4.9-4.9,6.2-8.3c0.5-1.3,1.8-1.9,3.3-1.5c1,0.3,2.1,0.5,3.2,0.4c3.8-0.6,6,1,7.1,4.6c1.3,0.9,1.8-0.8,2.8-1
	c3.9,0.4,2.3,3.8,3.2,5.8c0.1,0.5,0-0.1,0.1,0.4c0.2,1.5,2.1,3.4-0.9,4.2c-1.7,1.7-3.3,0.4-4.7-0.5c-3-1.9-6.4-2.7-9.9-3.2
	c-1.4-0.2-3-0.3-4.1,0.9c0.2,2,2.1,1.7,3.3,2.3c3.2,0.5,6.3,1.3,9.1,3.1c0.7,0.4,1.4,0.8,2.2,1c5.7,1.6,5.7,1.6,6.4,7.8
	c0.4,3.8,1.6,7.6,1.6,11.6c-1.7-5.8-4.5-10.8-9.4-14.5c-5-3.7-10.7-5-16.8-4.1c-6.2,0.9-11,4.1-14.7,9.1c-3.6,4.8-4.6,10.4-4.9,16.5
	c0-5.1-1.6-8.9-6.6-10.4c-6.5-1.1-10.3,1.5-10.5,7.9c-0.1,3-2.4,3.1-3.9,4.4c0.3,0.5,0.5,1,0.8,1.5c5.7-0.1,11.2,3.8,17.3,0.5
	c2.7-1.4,5.1,0.6,6.4,3.3c2.6,5.2,6.6,8.7,12.4,9.9c0.7-0.3,1.4-0.6,2.1-0.8c-0.5-1.9-2.4-2-3.7-2.7c-8-4.5-11.7-12.6-9.7-21.5
	c1.7-7.8,9.6-14.7,18-14.7c7.4,0,15.2,3.9,18.5,13c2.7,7.3-0.3,16.7-6.3,21.3c-1.5,1.1-3.9,1.5-4.2,3.9c0.3,0.2,0.6,0.5,0.9,0.7
	c7.5-3.3,11.7-9.1,13-17.1c0.1-0.7-0.2-2.1,0.6-2.1c7.8-0.5,3.6-6.6,3-8.9c-1.7-6.6-1.5-13.3-2.8-19.8c-0.3-1.7-0.2-3.4-0.4-5.1
	c-0.5-3.7-0.6-7.1-5.8-6.1c-0.3,0.1-0.9-0.2-1-0.4c-2.7-6-8.5-2.1-12.6-3.7c-1.7-0.7-3.5,0.8-4.3,2.8c-0.9,2.1-1.9,3.9-4.8,2.5
	c-2.2-1-2.7,1.1-3.4,2.5c-4.3,8-8.6,16.1-12.8,24.1c-0.1,0.2-0.4,0.4-0.5,0.4C63.9,40.1,63.7,39.9,63.5,39.7z"/>
<path id="XMLID_243_" class="st2" d="M43.5,56.6c3.1,0.1,5.3-0.1,4.8-4.6c-0.6-4.9,3-7.4,9.7-7.6c0-0.1,0-0.3,0-0.4
	c-1.5-1-4.7-0.3-3.9-3.8c0.1-0.3-1.1-1-1.8-1.4c-4.7-2.6-9.4-5-14-7.8c-2-1.2-3.1-0.3-4,0.9c-1.3,1.8,0.9,1.8,1.6,2.4
	c6.3,5.6,9.6,12.3,7.6,20.9C43.6,55.7,43.5,56.1,43.5,56.6z"/>
<path id="XMLID_197_" class="st3" d="M14.5,3.3c-2.1-3.1-5.1-1.9-7.7-1.4c-3,0.7-4.4,3.3-5.3,6.1C1.2,9.2,2,9.8,2.8,10.3
	C19.9,19.6,37,28.9,54.1,38.2c0.5,0.3,1,0.4,1.5-0.1c2.3-1.6,1.1-3.1-0.5-4.1c-1.9-1.2-1.6-2.4-0.7-4c2.8-5.5,6.1-10.7,8.6-16.3
	c0.9-2,2.3-2.9,4.5-2.5c1.1,0.2,2.2,0.2,3-0.6c1.4-1.4,2.6-3.1,2-5c-0.6-1.9-2.6-1.5-4.2-1.5c-15.8-0.1-31.6,0-47.5,0
	C18.8,3.8,16.6,4.1,14.5,3.3z"/>
<path id="XMLID_196_" class="st4" d="M58,44c0,0.1,0,0.3,0,0.4c3.6,2.4,5.7,5.3,4.8,10c-0.5,2.7,2.4,0.9,3.4,2.1
	c-0.5-4.7-0.4-9.2,1.5-13.5c3.9-8.9,12.5-14,22.3-13.1c8.6,0.8,16.3,7.7,18.5,16.7c0.2,0.8,0.3,1.6,0.4,2.4c0.1,1.2,0.9,1.1,1.8,1.1
	c1,0,1.4-0.4,1.2-1.5c-1-6.5-1.9-12.9-2.9-19.4c-0.1-0.7-0.5-1.5-1.2-1.3c-4.8,1.2-7.9-2.8-12-3.7c-1.6-0.4-3.2-0.6-4.7-0.9
	c-1.4-0.3-2.7-0.5-4.1,0c-2.5,0.5-5,1-7.5,1.6c-1.1,0.2-2.7,0.4-2-1.3c1.3-3,1.4-6.8,5.5-8.3c-3.5-0.9-3.6-0.9-5,1.8
	c-3.8,7.2-7.7,14.4-11.5,21.7c-1,1.9-2.2,3.4-4.5,3.3C61.6,44.8,60.1,45.1,58,44z"/>
<path id="XMLID_195_" class="st5" d="M56.8,38.1c-0.1,1.4-2.1,2.9,0.9,4.2c2.8,1.2,3.2-0.6,4-2.2c4.4-8.4,8.9-16.8,13.2-25.3
	C78.3,8,83.7,4.7,91.3,4.9c5.9,0.2,11.8,0.1,17.7,0.1c0.9,0,2.4,0.9,2.5-0.9c0-1-0.7-2.3-1.9-2.3C98.3,2,86.9,0.7,75.6,2.5
	C75,2.8,74.3,3,74,3.6c-5.8,10.9-12,21.6-17,32.9C56.7,37,56.7,37.6,56.8,38.1z"/>
<path id="XMLID_194_" class="st6" d="M56.8,38.1C63,26.2,69.3,14.3,75.6,2.5c-0.8-1.2-1.9-1.6-3.4-1.6c-18.6,0.1-37.2,0-55.8,0
	c-0.5,0-1.5-0.4-1.3,0.8c1.6,1.1,3.4,0.8,5.1,0.8c16,0,32,0,48,0c-17.6,0-35.3,0-52.9,0C15,2.8,14.8,3,14.5,3.3
	c0.9,2.3,2.9,1.6,4.5,1.6c16.2,0,32.5,0,48.7,0c1.4,0,2.9,0,4.7,0c-1.3,3.3-1.9,6.4-6.3,5.2c-1.8-0.5-2.9,0.6-3.8,2.2
	c-3.1,6.1-6.2,12.2-9.5,18.2c-1.1,2.1-0.8,3.2,1.3,4c1.8,0.7,2.6,1.8,1.5,3.6C56,38.1,56.4,38.1,56.8,38.1z"/>
<path id="XMLID_192_" class="st3" d="M15.2,2.5c1,0.9,2.2,0.8,3.4,0.8c17.5,0,34.9,0,52.4,0c1,0,2.2,0.4,3.2-1.6
	c-20,0-39.5,0-59.1,0C15.2,2,15.2,2.3,15.2,2.5z"/>
<path id="XMLID_175_" class="st7" d="M19.3,30c4.2-0.2,8.2-0.3,11.8,1.6c1.9,1,2.4-0.4,3.1-1.3c1.5-1.9-0.8-1.7-1.5-2.3
	c-1-0.8-2.3-1.3-3.5-2C22.5,22.4,22.5,22.4,19.3,30z"/>
<path id="XMLID_113_" class="st8" d="M101.7,15.4c-1-5.6-1.3-4.5-6.8-5.6c-6.2-1.3-8.7,1-10.6,6.1c-0.7,1.9-3.7,2-4,4.5
	c1.3,2.3,3.4,1.1,5,0.9c4.7-0.8,9.3-0.7,14,0c2.3,0.3,5.5,1.3,6.5-1.4C106.6,17.4,103,17,101.7,15.4z"/>
<path id="XMLID_112_" class="st9" d="M101.7,15.4c-0.9,3.2,3.2,2.3,3.8,5c-2.4-0.2-4.5-0.2-6.7-0.5c-5.5-0.8-11-0.5-16.4,0.6
	c-0.8,0.2-1.5,0.7-2.1-0.2c-0.6,3.1-0.6,3.1,2,2.4c1.6-0.4,3.3-0.3,4.8,0.6c1.4,0,2.7,0,4.1,0c-1.1-0.4-2.1-0.9-3.2-1.3
	c5.1-1.2,15.3,0.5,19.2,3.3c1.8-1.4,2.6-3,1-5.1c-0.6-3-3.7-4.4-4.7-7.2C102,13.3,102.7,15,101.7,15.4z"/>
<path id="XMLID_111_" class="st8" d="M107.1,25.4c-0.5-2.5-1.9-3.4-4.6-3.6c-5.4-0.5-10.7-0.6-16.1,0c0.5,0.1,1,0.2,1.5,0.3
	c5.1-0.4,9.8,0.8,14.1,3.7C103.7,26.9,105.6,27.8,107.1,25.4z"/>
<path id="XMLID_109_" class="st10" d="M55.4,48.6c1.3-0.1,2.4,0.1,3.1,1.4c0.5,1,1.5,1.4,2.3,0.7c1.2-1,0.1-1.9-0.5-2.7
	c-2.3-3-7.7-2.8-9.7,0.4c-0.4,0.7-1,1.5-0.4,2.1c0.7,0.8,1.8,0.6,2.4-0.3C53.2,49.2,54,48.4,55.4,48.6z"/>
<path id="XMLID_108_" class="st11" d="M103.4,13.1c-0.5,1.8-0.5,3.2,1.7,4.2c1.2,0.5,2,2,3,3c-0.1-1.2-0.3-2.4-0.3-3.5
	C107.8,13.7,106.2,12.7,103.4,13.1z"/>
<path id="XMLID_107_" class="st12" d="M53.3,52.3c0.4,1.1,0.9,2,2.2,1.9c1.5-0.1,2.1-1.2,2-2.4c-0.1-1.2-1.1-1.7-2.3-1.6
	C53.9,50.3,53.7,51.3,53.3,52.3z"/>
<path id="XMLID_49_" class="st13" d="M47.9,9.7c-4.2-1.4-6.5,1.3-7.9,5.4c-0.2,0.5-0.5,1-0.7,1.4c-3.8,7.8-3.8,7.7,3.8,11.4
	c2.4,1.2,3.4,0.9,4.5-1.5c1.8-4.3,4-8.5,6-12.7c1.9-4,1.9-4-2.6-4C50.2,9.7,49.4,9.7,47.9,9.7z"/>
<path id="XMLID_48_" class="st14" d="M27.6,9.7C24.5,9,21.4,9.9,20.2,14c-0.1,0.3-0.4,0.5-0.3,0.7c0.8,3.9,4.8,3.3,7.2,5.1
	c1.1,0.8,2.6,1.9,3.6-0.3c0.5-1.2,1.1-2.4,1.7-3.6C35.3,9.7,35.3,9.7,27.6,9.7z"/>
<path id="XMLID_47_" class="st15" d="M69,11.8c-3.2-0.9-5-0.1-6.3,2.8c-2.4,5.2-5.2,10.2-7.9,15.3c-0.7,1.4-1.4,2.5,0.5,3.6
	c2,1.1,2.6-0.2,3.3-1.5C62,25.4,65.4,18.8,69,11.8z"/>
<path id="XMLID_44_" class="st16" d="M93.8,10.2c-1.1,0.5-3.5-0.6-3.2,1.7c0.2,1.8-0.8,5,3,5c0.7,0,1.4,0,2,0.3
	c1.7,0.8,3.5,3.3,5.2,0.5c1.2-2-1.9-6.5-4.5-7.2C95.5,10.3,94.7,10.3,93.8,10.2z"/>
<path id="XMLID_28_" class="st15" d="M47.5,10.9c-3.2-1.1-4.8,1.1-6,4.2c-0.5,1.2-1.2,2.4-1.8,3.6c-2.5,5.6-3.5,4.3,2.4,7.4
	c2.6,1.4,3.8,1.2,4.9-1.7c1.3-3.5,3-6.9,4.8-10.2c1.6-2.9,0.7-3.7-2.3-3.4C49.1,10.9,48.6,10.9,47.5,10.9z"/>
<path id="XMLID_27_" class="st17" d="M21.2,14.7c0.5,1.9,2.2,2,3.4,2.5c1.5,0.7,3.3,2.7,4.5,1.5c1.7-1.7,2.4-4.3,3.5-6.6
	c0.1-0.2,0-0.7-0.1-0.7c-2.7-1-5.5-0.5-8.2-0.4C22.2,11.1,22.4,13.6,21.2,14.7z"/>
<path id="XMLID_24_" class="st18" d="M99.5,17.5c-0.6-3.6-1.6-6-5.2-6c-0.9,0-2.4-0.4-2.3,1.4c0.1,1.1-0.2,2.7,1.7,2.5
	C95.7,15.2,97,16.8,99.5,17.5z"/>
<line id="XMLID_7_" class="st19" x1="19.7" y1="0" x2="19.7" y2="0"/>
<line id="XMLID_6_" class="st19" x1="45.7" y1="0" x2="45.7" y2="0"/>
</svg>
