<?xml version="1.0" encoding="utf-8"?>
<!-- Generator: Adobe Illustrator 19.0.0, SVG Export Plug-In . SVG Version: 6.00 Build 0)  -->
<svg version="1.1" id="Layer_1" xmlns="http://www.w3.org/2000/svg" xmlns:xlink="http://www.w3.org/1999/xlink" x="0px" y="0px"
	 viewBox="0 0 57 56.9" style="enable-background:new 0 0 57 56.9;" xml:space="preserve">
<style type="text/css">
	.st0{fill:#BDD9F2;}
	.st1{fill:#1B4665;}
	.st2{fill:#214C6B;}
	.st3{fill:#38617F;}
	.st4{fill:#1D4867;}
	.st5{fill:#406885;}
	.st6{fill:#2A5473;}
	.st7{fill:#2F5977;}
	.st8{fill:#365F7D;}
	.st9{fill:#2A5573;}
	.st10{fill:#BBD7F1;}
	.st11{fill:#1F4966;}
	.st12{fill:#FAFBFB;}
	.st13{fill:#1B4461;}
	.st14{fill:#F7F8F9;}
</style>
<g id="XMLID_22_">
	<path id="XMLID_37_" class="st0" d="M0,32.7C0.1,16.8,6,6.6,17.9,1.9C31-3.2,46.1,2.1,53.1,14.2c7.2,12.5,4.2,28.1-7.2,36.9
		c-1.5,1.2-3.1,2.2-4.6,3.3C20.6,61.4,5.3,53.4,0,32.7z"/>
	<path id="XMLID_36_" class="st1" d="M48.2,28.9C48,39.5,38.9,48.4,28.3,48.3C17.4,48.2,8.4,38.9,8.8,28C9.1,17.3,18.4,8.4,28.9,8.8
		C39.5,9.1,48.4,18.3,48.2,28.9z"/>
	<path id="XMLID_35_" class="st2" d="M23.9,3.2c-5.7,2.6-9.7,5.1-14.2,8.4C12.5,6.2,16.6,3.7,23.9,3.2z"/>
	<path id="XMLID_34_" class="st3" d="M35.4,54c-3.5,0.9-7.1,2.2-10.8-0.5c3.6-0.3,7.1-0.6,10.7-1C35.3,53.1,35.4,53.5,35.4,54z"/>
	<path id="XMLID_33_" class="st4" d="M46.3,10.3c3.2,1.8,5,4.8,6.1,8.2C49.2,16.7,47.6,13.6,46.3,10.3z"/>
	<path id="XMLID_32_" class="st5" d="M51.9,36.7c-0.6-2.6-0.6-5,1.3-8C54.8,32.2,53.6,34.5,51.9,36.7z"/>
	<path id="XMLID_31_" class="st6" d="M16.3,51.4c-3.9-1.5-5.5-3-7.7-5.9C12.5,46.2,14.1,47.8,16.3,51.4z"/>
	<path id="XMLID_30_" class="st7" d="M6.6,41.5c-3.8-3.1-4.2-5.7-4.3-9.9C5.3,34.9,5.3,37.6,6.6,41.5z"/>
	<path id="XMLID_29_" class="st8" d="M41.8,50.2c1-3,2.9-3.8,4.8-5.1C45.9,48.2,45.9,48.2,41.8,50.2z"/>
	<path id="XMLID_28_" class="st9" d="M4.8,16.9c0.4,2.3,0,4.3-1.9,6.3C1.8,20.2,3.5,18.6,4.8,16.9z"/>
	<path id="XMLID_27_" class="st10" d="M46.1,28.9c-0.1,9.8-8.2,17.7-18,17.5c-9.7-0.2-17.7-8.4-17.5-18.1
		c0.2-9.7,8.3-17.5,18.1-17.4C38.6,11,46.2,18.8,46.1,28.9z"/>
	<path id="XMLID_26_" class="st11" d="M42.8,28.5c0,8.1-6.3,14.5-14.3,14.6c-7.9,0.1-14.5-6.4-14.6-14.4
		c-0.1-7.9,6.4-14.4,14.4-14.5C36.4,14.1,42.8,20.3,42.8,28.5z"/>
	<path id="XMLID_25_" class="st12" d="M28.4,41c-7.2,0-12.5-5.5-12.5-12.7c0.1-7,5.9-12.7,12.8-12.5c6.6,0.2,12.3,5.9,12.3,12.5
		C41.2,35.4,35.4,41.1,28.4,41z"/>
	<path id="XMLID_24_" class="st13" d="M28.7,20.8c4.2,0.1,7.5,3.5,7.5,7.8c0,4.5-3.5,7.9-8.1,7.7c-4.5-0.2-7.7-3.8-7.5-8.3
		C20.9,23.8,24.4,20.7,28.7,20.8z"/>
	<path id="XMLID_23_" class="st14" d="M28.6,34.6c-3.4-0.3-5.8-2.1-6-5.6c-0.2-3.7,2-6.3,5.7-6.4c3.7-0.1,6.1,2.3,6.1,6
		C34.4,32.2,32,34,28.6,34.6z"/>
</g>
</svg>
