<?xml version="1.0" encoding="utf-8"?>
<!-- Generator: Adobe Illustrator 19.0.0, SVG Export Plug-In . SVG Version: 6.00 Build 0)  -->
<svg version="1.1" id="Layer_1" xmlns="http://www.w3.org/2000/svg" xmlns:xlink="http://www.w3.org/1999/xlink" x="0px" y="0px"
	 viewBox="0 0 56.9 57" style="enable-background:new 0 0 56.9 57;" xml:space="preserve">
<style type="text/css">
	.st0{fill:#BDD9F3;}
	.st1{fill:#1B4665;}
	.st2{fill:#244F6D;}
	.st3{fill:#345D7B;}
	.st4{fill:#1D4968;}
	.st5{fill:#2F5978;}
	.st6{fill:#234E6D;}
	.st7{fill:#38617F;}
	.st8{fill:#1E4A68;}
	.st9{fill:#BAD7F1;}
	.st10{fill:#1F4966;}
	.st11{fill:#FAFBFC;}
	.st12{fill:#1E4763;}
	.st13{fill:#F6F8F9;}
</style>
<g id="XMLID_3_">
	<path id="XMLID_21_" class="st0" d="M17.9,55.5c-7.2-3.9-13.2-8.9-16.1-16.9C-3.5,24,3.5,7.9,17.6,2.1c14.4-5.9,31,1,37.1,15.3
		c6,14.2-0.2,30.3-14.4,37c-1.5,0.7-3.1,1.4-4.6,2.1C29.7,57.4,23.7,57.2,17.9,55.5z"/>
	<path id="XMLID_20_" class="st1" d="M48.1,28.4c0,10.8-8.7,19.7-19.4,19.9C17.9,48.5,8.5,39.2,8.6,28.4C8.7,17.9,17.9,8.8,28.4,8.7
		C39,8.7,48.1,17.8,48.1,28.4z"/>
	<path id="XMLID_19_" class="st2" d="M53.2,28.8c1.6,5.3,0.4,9.9-3.4,13.7C50.9,38,52.1,33.4,53.2,28.8z"/>
	<path id="XMLID_18_" class="st3" d="M28.7,52.9c-3.6,2.3-6.9,1.3-10.3,0c0-0.5,0.1-1,0.1-1.5C21.9,51.9,25.3,52.4,28.7,52.9z"/>
	<path id="XMLID_17_" class="st4" d="M13.2,10c-2.3,2.7-4.7,5.4-7,8C6.9,13.9,9.2,11.2,13.2,10z"/>
	<path id="XMLID_16_" class="st5" d="M29.1,2.3c-2.7,2.2-5.1,1.9-8.2,1.4C23.6,1.2,26,1.5,29.1,2.3z"/>
	<path id="XMLID_15_" class="st6" d="M44.2,7.9c-2.7-0.3-5.2-1.1-7.4-3.6C40.5,3.9,42.4,5.9,44.2,7.9z"/>
	<path id="XMLID_14_" class="st7" d="M3.4,31.3c-0.9-3.4-1-5.4,0.2-7.8C5.9,25.9,4.8,27.9,3.4,31.3z"/>
	<path id="XMLID_13_" class="st8" d="M9.1,45.2c-2.8-1-3.7-3.2-4.1-5.6C7.5,40.7,8.3,42.9,9.1,45.2z"/>
	<path id="XMLID_11_" class="st9" d="M10.8,28.4c0-9.9,7.9-17.6,17.8-17.6c9.8,0.1,17.8,8.1,17.7,17.8c-0.1,9.7-8.2,17.7-17.9,17.6
		C18.5,46.3,10.7,38.3,10.8,28.4z"/>
	<path id="XMLID_10_" class="st10" d="M28.2,14.2c8.1-0.1,14.6,6.2,14.7,14.1C43,36.2,36.6,42.9,28.7,43c-8,0.1-14.5-6.2-14.6-14.2
		C13.9,20.7,20.1,14.3,28.2,14.2z"/>
	<path id="XMLID_8_" class="st11" d="M28.2,41c-7-0.1-12.6-5.9-12.4-12.9c0.2-6.6,6-12.3,12.6-12.3c7,0,12.6,5.7,12.5,12.7
		C40.8,35.8,35.4,41.1,28.2,41z"/>
	<path id="XMLID_5_" class="st12" d="M28.4,20.8c4.2,0,7.6,3.3,7.7,7.5c0.1,4.4-3.3,8-7.7,8c-4.4,0-7.9-3.6-7.8-8
		C20.8,24.1,24.3,20.8,28.4,20.8z"/>
	<path id="XMLID_4_" class="st13" d="M28.3,34.5c-3.4-0.5-5.8-2.3-5.8-5.8c-0.1-3.7,2.3-6.1,6-6.1c3.7,0,6,2.5,5.8,6.3
		C34.1,32.3,31.8,34.2,28.3,34.5z"/>
</g>
</svg>
